<svg width="25" height="24" viewBox="0 0 25 24" fill="none" xmlns="http://www.w3.org/2000/svg">
<g clip-path="url(#clip0_2_604)">
<path fill-rule="evenodd" clip-rule="evenodd" d="M-0.236816 0H23.7632V24H-0.236816V0Z" fill="white"/>
<path fill-rule="evenodd" clip-rule="evenodd" d="M0.819544 22.1252H0.75094C0.75094 22.0909 0.733757 22.0394 0.733757 22.0221C0.733757 22.005 0.733757 21.9708 0.68221 21.9708H0.579116V22.1252H0.527569V21.7646H0.68221C0.75094 21.7646 0.802362 21.7819 0.802362 21.8504C0.802362 21.9019 0.78518 21.9192 0.768122 21.9362C0.785304 21.9535 0.802362 21.9706 0.802362 22.005V22.0736C0.802362 22.0909 0.802362 22.0909 0.819544 22.0909V22.1252ZM0.75094 21.8677C0.75094 21.8161 0.716575 21.8161 0.699393 21.8161H0.579116V21.9192H0.68221C0.716575 21.9192 0.75094 21.9019 0.75094 21.8677ZM1.04291 21.9363C1.04291 21.7303 0.871216 21.5584 0.647846 21.5584C0.441782 21.5584 0.269958 21.7303 0.269958 21.9363C0.269958 22.1595 0.441782 22.3315 0.647846 22.3315C0.871091 22.3313 1.04291 22.1595 1.04291 21.9363ZM0.991368 21.9363C0.991368 22.1253 0.836851 22.2626 0.647846 22.2626C0.45884 22.2626 0.321506 22.1252 0.321506 21.9363C0.321506 21.7646 0.458964 21.6099 0.647846 21.6099C0.836727 21.6099 0.991368 21.7646 0.991368 21.9363ZM22.1523 14.9972C22.1523 15.5126 21.826 15.7527 21.2419 15.7527H20.1257V15.2374H21.2419C21.345 15.2374 21.4309 15.2203 21.4654 15.1861C21.4996 15.1516 21.534 15.1001 21.534 15.0315C21.534 14.9626 21.4997 14.894 21.4654 14.8598C21.4309 14.8253 21.3623 14.8082 21.2592 14.8082C20.7269 14.7909 20.0569 14.8253 20.0569 14.0696C20.0569 13.726 20.2802 13.3481 20.8813 13.3481H22.032V13.8634H20.9671C20.8642 13.8634 20.7954 13.8634 20.7438 13.8977C20.6923 13.9492 20.6581 14.0008 20.6581 14.0867C20.6581 14.1726 20.7096 14.2241 20.7782 14.2586C20.8471 14.2757 20.9158 14.2929 21.0017 14.2929H21.3107C21.6371 14.2929 21.8433 14.3615 21.9807 14.4819C22.0836 14.602 22.1523 14.7568 22.1523 14.9972ZM19.7305 14.4819C19.593 14.3615 19.3868 14.2929 19.0605 14.2929H18.7514C18.6656 14.2929 18.5968 14.2756 18.5282 14.2586C18.4593 14.2241 18.408 14.1726 18.408 14.0867C18.408 14.0008 18.4251 13.9492 18.4938 13.8977C18.5454 13.8634 18.614 13.8634 18.7171 13.8634H19.782V13.3481H18.6313C18.0128 13.3481 17.8067 13.726 17.8067 14.0696C17.8067 14.8252 18.4766 14.7909 19.0092 14.8082C19.112 14.8082 19.1809 14.8253 19.2151 14.8598C19.2493 14.894 19.284 14.9626 19.284 15.0315C19.284 15.1001 19.2495 15.1516 19.2151 15.1861C19.1636 15.2203 19.095 15.2374 18.9919 15.2374H17.8754V15.7527H18.9919C19.5757 15.7527 19.9022 15.5124 19.9022 14.9972C19.9022 14.7568 19.8336 14.602 19.7305 14.4819ZM17.5319 15.2548H16.1752V14.7739H17.4976V14.2931H16.1752V13.8464H17.5319V13.3483H15.6083V15.7529H17.5319V15.2548ZM14.9899 13.4686C14.8009 13.3655 14.5776 13.3482 14.2856 13.3482H12.9632V15.7527H13.5471V14.8768H14.1655C14.3714 14.8768 14.4918 14.8941 14.5777 14.9799C14.6808 15.1001 14.6808 15.3063 14.6808 15.4609V15.7527H15.2475V15.2889C15.2475 15.0657 15.2304 14.9626 15.1617 14.8425C15.1101 14.7736 15.0073 14.6878 14.8698 14.6363C15.0242 14.585 15.2821 14.3788 15.2821 14.0008C15.282 13.7261 15.1789 13.5715 14.9899 13.4686ZM11.7265 13.3482H9.88858L9.14999 14.1384L8.44577 13.3482H6.12702V15.7527H8.41153L9.15012 14.9626L9.85434 15.7527H10.9708V14.9457H11.6922C12.1903 14.9457 12.6886 14.8082 12.6886 14.1384C12.6884 13.4857 12.1731 13.3482 11.7265 13.3482ZM14.5261 14.3445C14.4403 14.3788 14.3544 14.3788 14.2513 14.3788L13.5471 14.3961V13.8463H14.2513C14.3544 13.8463 14.4575 13.8463 14.5261 13.8978C14.5949 13.9323 14.6462 14.0009 14.6462 14.104C14.6462 14.2071 14.5949 14.293 14.5261 14.3445ZM11.7265 14.4647H10.9707V13.8463H11.7265C11.9327 13.8463 12.07 13.9323 12.07 14.1384C12.07 14.3445 11.9325 14.4647 11.7265 14.4647ZM9.5107 14.5505L10.4038 13.606V15.5468L9.5107 14.5505ZM8.11943 15.2548H6.69379V14.7739H7.96479V14.2931H6.69379V13.8464H8.13661L8.77211 14.5506L8.11943 15.2548ZM20.5548 11.6134H19.7305L18.6483 9.8099V11.6134H17.4806L17.2571 11.0809H16.0548L15.8316 11.6134H15.1616C14.8868 11.6134 14.5261 11.5447 14.3201 11.3385C14.1311 11.1324 14.028 10.8576 14.028 10.4282C14.028 10.0675 14.0796 9.74117 14.3371 9.48356C14.5088 9.29455 14.818 9.20877 15.213 9.20877H15.7626V9.72411H15.213C15.0071 9.72411 14.8867 9.75848 14.7665 9.86157C14.6634 9.96467 14.6119 10.1535 14.6119 10.4112C14.6119 10.6688 14.6634 10.8578 14.7665 10.978C14.8523 11.0638 15.0071 11.0982 15.1614 11.0982H15.4192L16.2436 9.20889H17.1024L18.0643 11.4761V9.20877H18.9575L19.9709 10.8748V9.20877H20.5547V11.6134H20.5548ZM13.7361 9.20877H13.1522V11.6134H13.7361V9.20877ZM12.5165 9.31186C12.3275 9.20877 12.1215 9.20877 11.8296 9.20877H10.5069V11.6134H11.0737V10.7374H11.692C11.8982 10.7374 12.0356 10.7546 12.1214 10.8405C12.2245 10.9607 12.2072 11.1669 12.2072 11.3043V11.6134H12.791V11.1324C12.791 10.9264 12.774 10.8233 12.6882 10.703C12.6366 10.6343 12.5335 10.5484 12.4134 10.4969C12.5678 10.4282 12.8256 10.2393 12.8256 9.86145C12.8258 9.58665 12.7054 9.43201 12.5165 9.31186ZM10.0946 11.1154H8.75492V10.6344H10.0775V10.1364H8.75492V9.70693H10.0946V9.20889H8.17097V11.6135H10.0946V11.1154ZM7.74154 9.20877H6.79688L6.09266 10.8405L5.33688 9.20877H4.40941V11.476L3.43039 9.20877H2.57165L1.54108 11.6134H2.15939L2.38264 11.0809H3.58491L3.80815 11.6134H4.97618V9.72411L5.81774 11.6134H6.31578L7.15746 9.72411V11.6134H7.74141L7.74154 9.20877ZM17.0511 10.5657L16.6559 9.62102L16.261 10.5657H17.0511ZM12.07 10.1879C11.9842 10.2395 11.8983 10.2395 11.778 10.2395H11.0737V9.70705H11.7779C11.881 9.70705 12.001 9.70705 12.0699 9.74142C12.1385 9.79297 12.173 9.8617 12.173 9.96466C12.173 10.0676 12.1386 10.1534 12.07 10.1879ZM2.5887 10.5657L2.98377 9.62102L3.37884 10.5657H2.5887ZM22.015 1.66846H1.52377V10.3252L2.228 8.72791H3.72224L3.92843 9.12298V8.72791H5.6804L6.07547 9.58665L6.45336 8.72791H12.0356C12.2931 8.72791 12.5164 8.77946 12.6883 8.91679V8.72791H14.2169V8.91679C14.4744 8.77933 14.8007 8.72791 15.1788 8.72791H17.3944L17.6006 9.12298V8.72791H19.2323L19.4728 9.12298V8.72791H21.0701V12.0944H19.4557L19.1466 11.5792V12.0944H17.1369L16.9137 11.5448H16.4154L16.1921 12.0944H15.1445C14.7323 12.0944 14.423 11.9913 14.217 11.8883V12.0944H11.7265V11.3214C11.7265 11.2184 11.7093 11.2012 11.6406 11.2012H11.5548V12.0943H6.74534V11.6648L6.57364 12.0943H5.56025L5.38855 11.682V12.0943H3.44757L3.24151 11.5447H2.74334L2.5201 12.0943H1.52377V22.2454H22.015V16.0791C21.7917 16.1822 21.4824 16.2337 21.1733 16.2337H19.6789V16.0275C19.5072 16.1651 19.1979 16.2337 18.9061 16.2337H14.1997V15.4609C14.1997 15.3578 14.1827 15.3578 14.0966 15.3578H14.0109V16.2337H12.4649V15.3234C12.2075 15.4436 11.9154 15.4436 11.6577 15.4436H11.4859V16.2337H9.59661L9.15012 15.7184L8.65208 16.2337H5.61168V12.8674H8.70338L9.14999 13.3825L9.63097 12.8674H11.7093C11.9496 12.8674 12.3448 12.9016 12.5165 13.0733V12.8674H14.3714C14.5604 12.8674 14.9213 12.9016 15.1616 13.0733V12.8674H17.9613V13.0734C18.1159 12.936 18.408 12.8675 18.6655 12.8675H20.2285V13.0734C20.4004 12.9533 20.6407 12.8675 20.95 12.8675H22.015V1.66846Z" fill="#0077A6"/>
</g>
<defs>
<clipPath id="clip0_2_604">
<rect width="24" height="24" fill="white" transform="translate(0.513184)"/>
</clipPath>
</defs>
</svg>
