<svg width="59" height="24" viewBox="0 0 59 24" fill="none" xmlns="http://www.w3.org/2000/svg">
<path d="M11.0845 3.08282C10.4047 3.89049 9.31712 4.52753 8.2295 4.43653C8.09354 3.34446 8.62603 2.18414 9.24914 1.46747C9.92891 0.63704 11.1185 0.0455028 12.0815 0C12.1948 1.13757 11.7529 2.25239 11.0845 3.08282ZM12.0702 4.65267C10.4954 4.56166 9.14718 5.55135 8.39944 5.55135C7.64037 5.55135 6.49609 4.69817 5.24986 4.72092C3.62975 4.74367 2.12294 5.6651 1.29589 7.13257C-0.403524 10.0675 0.854042 14.413 2.49681 16.8019C3.3012 17.985 4.2642 19.2818 5.53309 19.2363C6.73401 19.1908 7.20985 18.4514 8.66002 18.4514C10.1215 18.4514 10.5407 19.2363 11.8096 19.2136C13.1238 19.1908 13.9509 18.0305 14.7552 16.8474C15.6729 15.5051 16.0468 14.1969 16.0695 14.1286C16.0468 14.1059 13.5317 13.1389 13.509 10.2268C13.4863 7.79236 15.4917 6.63204 15.5823 6.56379C14.4493 4.88018 12.682 4.69817 12.0702 4.65267ZM21.1677 1.35371V19.0884H23.9094V13.0252H27.7048C31.1716 13.0252 33.6074 10.6363 33.6074 7.17807C33.6074 3.71986 31.2169 1.35371 27.7954 1.35371H21.1677ZM23.9094 3.67435H27.0703C29.4495 3.67435 30.809 4.94843 30.809 7.18945C30.809 9.43046 29.4495 10.7159 27.059 10.7159H23.9094V3.67435ZM38.615 19.225C40.3371 19.225 41.9345 18.349 42.6596 16.9612H42.7163V19.0884H45.2541V10.2609C45.2541 7.70136 43.2148 6.05188 40.0765 6.05188C37.1648 6.05188 35.0123 7.72411 34.9329 10.022H37.4028C37.6067 8.92993 38.615 8.21326 39.9972 8.21326C41.674 8.21326 42.6143 8.99819 42.6143 10.4429V11.4212L39.1928 11.626C36.0092 11.8194 34.2872 13.1276 34.2872 15.4027C34.2872 17.7006 36.0659 19.225 38.615 19.225ZM39.3514 17.1204C37.8899 17.1204 36.9609 16.4152 36.9609 15.3345C36.9609 14.2196 37.8559 13.5712 39.5667 13.4688L42.6143 13.2755V14.2765C42.6143 15.9374 41.2094 17.1204 39.3514 17.1204ZM48.6415 23.9117C51.3153 23.9117 52.5729 22.8879 53.6718 19.7824L58.4868 6.22251H55.6998L52.4709 16.6995H52.4142L49.1854 6.22251H46.319L50.9641 19.1339L50.7148 19.9189C50.2956 21.2498 49.6159 21.7617 48.4036 21.7617C48.1884 21.7617 47.7692 21.739 47.5992 21.7162V23.8435C47.7579 23.889 48.4376 23.9117 48.6415 23.9117Z" fill="black"/>
</svg>
