<svg width="245" height="25" viewBox="0 0 245 25" fill="none" xmlns="http://www.w3.org/2000/svg">
<path d="M244.903 5.2444C244.856 2.29926 242.431 -0.0501028 239.486 -0.00304418C236.54 0.0440145 234.191 2.46967 234.238 5.41482C234.285 8.35996 236.711 10.7093 239.656 10.6623C242.601 10.6152 244.95 8.18954 244.903 5.2444ZM239.571 5.32961C239.604 4.33017 239.603 4.33014 239.602 4.33008C239.6 4.33002 239.597 4.32993 239.594 4.32981C239.587 4.32958 239.576 4.32922 239.562 4.32875C239.534 4.32781 239.492 4.3264 239.436 4.32455C239.324 4.32083 239.157 4.3153 238.938 4.30805C238.498 4.29354 237.846 4.27215 236.995 4.2446C235.293 4.18948 232.797 4.10971 229.618 4.01104C223.26 3.81371 214.174 3.54083 203.256 3.2386C181.421 2.63414 152.261 1.91224 122.963 1.44259C93.668 0.972969 64.2251 0.755374 41.8283 1.16015C30.633 1.36249 21.1801 1.7206 14.3809 2.28266C10.9856 2.56333 8.22305 2.89709 6.22646 3.29453C5.2316 3.49257 4.39045 3.71337 3.74385 3.96627C3.4203 4.09282 3.11798 4.23791 2.86048 4.40948C2.61082 4.57583 2.34136 4.80783 2.16567 5.13219L3.04497 5.60846L3.92428 6.08474C3.8852 6.15688 3.86358 6.14441 3.96946 6.07386C4.06752 6.00853 4.22845 5.92427 4.47237 5.82887C4.9607 5.63786 5.67129 5.44429 6.61692 5.25605C8.5013 4.88094 11.1747 4.55453 14.5457 4.27586C21.2793 3.71922 30.6806 3.36196 41.8645 3.15983C64.2261 2.75568 93.6414 2.9728 122.931 3.44233C152.218 3.91182 181.37 4.6335 203.201 5.23783C214.116 5.53999 223.2 5.81281 229.556 6.01008C232.734 6.10871 235.229 6.18846 236.93 6.24355C237.781 6.27109 238.432 6.29247 238.872 6.30696C239.091 6.3142 239.258 6.31973 239.369 6.32344C239.425 6.32529 239.467 6.3267 239.495 6.32764C239.509 6.3281 239.52 6.32846 239.527 6.32869C239.53 6.32881 239.533 6.3289 239.535 6.32896C239.536 6.32902 239.537 6.32905 239.571 5.32961ZM3.04497 5.60846L2.16567 5.13219C-0.172566 9.44904 -0.0727188 14.2099 0.564732 17.8083C0.885277 19.6178 1.34687 21.1635 1.72861 22.2583C1.91975 22.8064 2.09156 23.2434 2.21689 23.5463C2.27959 23.6977 2.3307 23.8158 2.36688 23.8975C2.38498 23.9384 2.39933 23.9702 2.40954 23.9925C2.41465 24.0037 2.41871 24.0126 2.42168 24.019C2.42319 24.0222 2.42439 24.0248 2.42534 24.0268C2.42579 24.0278 2.4262 24.0287 2.42652 24.0294C2.42669 24.0297 2.42688 24.0302 2.42696 24.0303C2.42714 24.0307 2.4273 24.031 3.33255 23.6062C4.2378 23.1813 4.23791 23.1815 4.23802 23.1818C4.23804 23.1818 4.23812 23.182 4.23815 23.182C4.2382 23.1821 4.23817 23.1821 4.23807 23.1819C4.23788 23.1815 4.23742 23.1805 4.23668 23.1789C4.23523 23.1757 4.23267 23.1702 4.22909 23.1623C4.22194 23.1467 4.21066 23.1217 4.1957 23.0879C4.16576 23.0203 4.12105 22.9172 4.06489 22.7815C3.95249 22.5099 3.79446 22.1084 3.6171 21.5997C3.26185 20.581 2.83188 19.1406 2.53408 17.4595C1.93484 14.0767 1.8909 9.83876 3.92428 6.08474L3.04497 5.60846Z" fill="#FFA726"/>
</svg>
