<svg width="135" height="115" viewBox="0 0 135 115" fill="none" xmlns="http://www.w3.org/2000/svg">
<path d="M134.294 5.87369C134.247 2.92854 131.821 0.579179 128.876 0.626238C125.931 0.673296 123.582 3.09896 123.629 6.0441C123.676 8.98924 126.101 11.3386 129.047 11.2915C131.992 11.2445 134.341 8.81883 134.294 5.87369ZM128.961 5.95889C128.962 4.95889 128.961 4.95889 128.96 4.95889C128.96 4.95889 128.958 4.95889 128.956 4.95889C128.953 4.95889 128.947 4.95889 128.94 4.95888C128.926 4.95888 128.905 4.95887 128.877 4.95886C128.82 4.95884 128.736 4.95881 128.625 4.95877C128.403 4.95868 128.073 4.95856 127.642 4.9584C126.781 4.95808 125.517 4.95761 123.906 4.95702C120.684 4.95583 116.074 4.95411 110.52 4.95206C99.4121 4.94794 84.5306 4.94243 69.4357 4.93684C39.246 4.92565 8.20276 4.91415 4.78886 4.91288L4.78849 5.91289L4.78812 6.91288C8.20201 6.91415 39.2452 6.92565 69.435 6.93684C84.5299 6.94243 99.4114 6.94794 110.519 6.95206C116.073 6.95411 120.683 6.95583 123.905 6.95702C125.516 6.95761 126.78 6.95808 127.641 6.9584C128.072 6.95857 128.402 6.95868 128.624 6.95877C128.735 6.95881 128.819 6.95884 128.876 6.95886C128.904 6.95887 128.925 6.95888 128.94 6.95888C128.947 6.95889 128.952 6.95889 128.956 6.95889C128.957 6.95889 128.959 6.95889 128.96 6.95889C128.961 6.95889 128.961 6.95889 128.961 5.95889ZM4.78849 5.91289L4.78886 4.91288C4.2083 4.91267 3.75938 5.21014 3.44998 5.54631C3.14939 5.87293 2.91878 6.29695 2.73228 6.74528C2.35704 7.64733 2.05823 8.90257 1.81177 10.4064C1.3158 13.4327 0.993878 17.7159 0.80123 22.8048C0.415427 32.9958 0.543504 46.5662 0.884363 60.1157C1.22533 73.67 1.77975 87.2225 2.24886 97.3851C2.48341 102.467 2.69668 106.702 2.85131 109.666C2.92863 111.148 2.99129 112.313 3.03464 113.108C3.05631 113.505 3.07315 113.809 3.08458 114.015C3.09029 114.118 3.09465 114.195 3.09758 114.248C3.09905 114.274 3.10016 114.294 3.10091 114.307C3.10128 114.313 3.10156 114.318 3.10175 114.322C3.10184 114.323 3.10192 114.325 3.10196 114.325C3.10201 114.326 3.10203 114.327 4.10043 114.27C5.09883 114.214 5.09881 114.213 5.09877 114.212C5.09872 114.212 5.09865 114.21 5.09856 114.209C5.09838 114.205 5.0981 114.201 5.09773 114.194C5.09699 114.181 5.0959 114.161 5.09444 114.136C5.09152 114.084 5.08718 114.006 5.08148 113.904C5.0701 113.699 5.0533 113.395 5.03166 112.999C4.98841 112.206 4.92582 111.043 4.8486 109.562C4.69414 106.601 4.48108 102.37 4.24672 97.2928C3.77798 87.1381 3.22422 73.6007 2.88372 60.0654C2.54311 46.5253 2.41647 33.0062 2.79979 22.8805C2.9917 17.811 3.3103 13.629 3.78544 10.7299C4.02454 9.27096 4.29393 8.19843 4.57887 7.51345C4.72246 7.16827 4.84495 6.98397 4.9216 6.90068C4.98946 6.82696 4.94194 6.91294 4.78812 6.91288L4.78849 5.91289Z" fill="#FFA726"/>
</svg>
