<svg width="79" height="55" viewBox="0 0 79 55" fill="none" xmlns="http://www.w3.org/2000/svg">
<path d="M0.666667 5.74369C0.666667 2.79818 3.05448 0.410362 6 0.410362C8.94552 0.410362 11.3333 2.79818 11.3333 5.74369C11.3333 8.68921 8.94552 11.077 6 11.077C3.05448 11.077 0.666667 8.68921 0.666667 5.74369ZM6 5.74369C5.95482 4.74472 5.9551 4.7447 5.95565 4.74468C5.95619 4.74465 5.957 4.74462 5.95808 4.74457C5.96023 4.74447 5.96344 4.74433 5.9677 4.74413C5.97623 4.74375 5.98896 4.74318 6.00584 4.74242C6.0396 4.7409 6.08992 4.73864 6.15629 4.73567C6.28903 4.72974 6.48594 4.72097 6.74278 4.70963C7.25646 4.68695 8.0099 4.65398 8.96921 4.61281C10.8878 4.53046 13.63 4.41529 16.9248 4.28397C23.5141 4.02135 32.3151 3.69411 41.1595 3.43574C50.0016 3.17743 58.8963 2.98768 65.6694 3.00062C69.0531 3.00709 71.924 3.06412 73.999 3.19022C75.0326 3.25303 75.8955 3.33444 76.5348 3.44089C76.851 3.49355 77.147 3.5578 77.3939 3.64179C77.5173 3.68374 77.6562 3.73983 77.7891 3.81788C77.9106 3.88924 78.1048 4.0235 78.2475 4.25484L77.3962 4.77962L76.545 5.3044C76.6451 5.46688 76.7634 5.5349 76.7765 5.54258C76.8009 5.55695 76.7989 5.55191 76.7498 5.53523C76.652 5.50196 76.4777 5.45892 76.2063 5.41373C75.6703 5.32448 74.8892 5.248 73.8777 5.18653C71.8626 5.06408 69.0388 5.00706 65.6655 5.00062C58.9245 4.98774 50.055 5.17673 41.2179 5.43488C32.3831 5.69298 23.5897 6.01993 17.0044 6.28238C13.712 6.4136 10.9719 6.52869 9.05497 6.61097C8.09653 6.6521 7.34392 6.68504 6.831 6.70768C6.57453 6.71901 6.378 6.72776 6.24562 6.73368C6.17943 6.73664 6.12928 6.73889 6.09569 6.7404C6.0789 6.74115 6.06625 6.74172 6.05781 6.7421C6.05359 6.74229 6.05042 6.74244 6.04832 6.74253C6.04726 6.74258 6.04648 6.74261 6.04595 6.74264C6.04543 6.74266 6.04518 6.74267 6 5.74369ZM77.3962 4.77962L78.2475 4.25484C78.3764 4.46407 78.4454 4.70499 78.4875 4.87887C78.5357 5.07712 78.5758 5.30763 78.6106 5.55789C78.6803 6.05988 78.7373 6.70673 78.7843 7.46529C78.8787 8.98604 78.9373 11.0224 78.9692 13.3864C79.0331 18.1182 78.9905 24.2129 78.9056 30.2303C78.8206 36.2495 78.6932 42.1989 78.587 46.6431C78.5339 48.8653 78.4861 50.7115 78.4516 52.0022C78.4343 52.6475 78.4204 53.1541 78.4108 53.4993C78.4059 53.6719 78.4022 53.8043 78.3997 53.8935C78.3984 53.9381 78.3974 53.9719 78.3968 53.9946C78.3965 54.0059 78.3962 54.0145 78.3961 54.0202C78.396 54.0231 78.3959 54.0252 78.3959 54.0267C78.3959 54.0274 78.3958 54.028 78.3958 54.0283C78.3958 54.0287 78.3958 54.0289 77.3962 54C76.3966 53.9711 76.3966 53.971 76.3967 53.9706C76.3967 53.9703 76.3967 53.9697 76.3967 53.969C76.3967 53.9676 76.3968 53.9655 76.3969 53.9627C76.397 53.957 76.3973 53.9485 76.3976 53.9373C76.3983 53.9147 76.3992 53.8811 76.4005 53.8367C76.403 53.7478 76.4067 53.6158 76.4115 53.4436C76.4211 53.099 76.4351 52.5933 76.4523 51.9487C76.4868 50.6596 76.5345 48.8154 76.5875 46.5953C76.6936 42.1549 76.8209 36.2125 76.9058 30.202C76.9906 24.1898 77.0329 18.1171 76.9694 13.4134C76.9377 11.0598 76.8795 9.06144 76.7882 7.58917C76.7424 6.85122 76.6892 6.262 76.6296 5.83317C76.5997 5.61802 76.5704 5.45944 76.544 5.35052C76.5116 5.21722 76.5009 5.2329 76.545 5.3044L77.3962 4.77962Z" fill="#FFA726"/>
</svg>
