<svg width="102" height="32" viewBox="0 0 102 32" fill="none" xmlns="http://www.w3.org/2000/svg">
<path d="M0.666667 23.5C0.666667 26.4455 3.05448 28.8333 6 28.8333C8.94552 28.8333 11.3333 26.4455 11.3333 23.5C11.3333 20.5545 8.94552 18.1667 6 18.1667C3.05448 18.1667 0.666667 20.5545 0.666667 23.5ZM6 23.5C5.8171 24.4831 5.81757 24.4832 5.81839 24.4834C5.81914 24.4835 5.82032 24.4837 5.82182 24.484C5.82481 24.4846 5.82924 24.4854 5.83507 24.4865C5.84675 24.4886 5.86408 24.4918 5.88697 24.496C5.93275 24.5045 6.0008 24.517 6.09038 24.5333C6.26955 24.566 6.53488 24.6141 6.88063 24.6758C7.57213 24.7993 8.58535 24.9775 9.87436 25.1968C12.4523 25.6352 16.1337 26.2379 20.5511 26.8953C29.3834 28.2098 41.1684 29.7448 52.9604 30.6222C64.7357 31.4985 76.5851 31.7248 85.5181 30.3954C89.9754 29.732 93.8011 28.6687 96.5387 27.0389C99.3089 25.3898 101.069 23.0844 101.069 20H100.069H99.0692C99.0692 22.1655 97.8898 23.9071 95.5156 25.3204C93.1088 26.7532 89.5853 27.768 85.2237 28.4171C76.5187 29.7127 64.8508 29.5015 53.1088 28.6278C41.3835 27.7552 29.6512 26.2277 20.8455 24.9171C16.4439 24.2621 12.7762 23.6616 10.2097 23.2251C8.92651 23.0068 7.91872 22.8296 7.23225 22.707C6.88902 22.6457 6.62613 22.598 6.44932 22.5658C6.36092 22.5497 6.29404 22.5374 6.24939 22.5292C6.22707 22.525 6.21031 22.5219 6.19919 22.5199C6.19364 22.5189 6.18949 22.5181 6.18677 22.5176C6.18541 22.5173 6.18444 22.5171 6.18376 22.517C6.18315 22.5169 6.1829 22.5169 6 23.5ZM100.069 20H101.069C101.069 19.959 101.069 19.918 101.069 19.8772C101.069 19.8363 101.069 19.7956 101.069 19.7549C101.069 19.7142 101.069 19.6736 101.069 19.6331C101.069 19.5926 101.069 19.5522 101.069 19.5118C101.069 19.4715 101.069 19.4312 101.069 19.391C101.069 19.3508 101.069 19.3108 101.069 19.2707C101.069 19.2307 101.069 19.1908 101.069 19.1509C101.069 19.1111 101.069 19.0713 101.069 19.0316C101.069 18.992 101.069 18.9524 101.069 18.9128C101.069 18.8733 101.069 18.8339 101.069 18.7945C101.069 18.7552 101.069 18.7159 101.069 18.6767C101.069 18.6375 101.069 18.5984 101.069 18.5594C101.069 18.5204 101.069 18.4814 101.069 18.4426C101.069 18.4037 101.069 18.3649 101.069 18.3262C101.069 18.2875 101.069 18.2489 101.069 18.2104C101.069 18.1718 101.069 18.1334 101.069 18.095C101.069 18.0566 101.069 18.0183 101.069 17.9801C101.069 17.9419 101.069 17.9038 101.069 17.8657C101.069 17.8277 101.069 17.7897 101.069 17.7518C101.069 17.7139 101.069 17.6761 101.069 17.6384C101.069 17.6007 101.069 17.563 101.069 17.5255C101.069 17.4879 101.069 17.4504 101.069 17.413C101.069 17.3756 101.069 17.3383 101.069 17.301C101.069 17.2638 101.069 17.2266 101.069 17.1895C101.069 17.1524 101.069 17.1154 101.069 17.0785C101.069 17.0416 101.069 17.0047 101.069 16.968C101.069 16.9312 101.069 16.8945 101.069 16.8579C101.069 16.8213 101.069 16.7848 101.069 16.7483C101.069 16.7119 101.069 16.6755 101.069 16.6392C101.069 16.6029 101.069 16.5667 101.069 16.5306C101.069 16.4944 101.069 16.4584 101.069 16.4224C101.069 16.3864 101.069 16.3505 101.069 16.3147C101.069 16.2789 101.069 16.2431 101.069 16.2075C101.069 16.1718 101.069 16.1362 101.069 16.1007C101.069 16.0652 101.069 16.0298 101.069 15.9944C101.069 15.9591 101.069 15.9238 101.069 15.8886C101.069 15.8534 101.069 15.8183 101.069 15.7832C101.069 15.7482 101.069 15.7132 101.069 15.6784C101.069 15.6435 101.069 15.6087 101.069 15.5739C101.069 15.5392 101.069 15.5046 101.069 15.47C101.069 15.4354 101.069 15.4009 101.069 15.3665C101.069 15.3321 101.069 15.2977 101.069 15.2634C101.069 15.2292 101.069 15.195 101.069 15.1609C101.069 15.1268 101.069 15.0927 101.069 15.0588C101.069 15.0248 101.069 14.9909 101.069 14.9571C101.069 14.9233 101.069 14.8896 101.069 14.8559C101.069 14.8222 101.069 14.7887 101.069 14.7552C101.069 14.7217 101.069 14.6882 101.069 14.6549C101.069 14.6215 101.069 14.5882 101.069 14.555C101.069 14.5218 101.069 14.4887 101.069 14.4557C101.069 14.4226 101.069 14.3896 101.069 14.3567C101.069 14.3238 101.069 14.291 101.069 14.2582C101.069 14.2255 101.069 14.1928 101.069 14.1602C101.069 14.1276 101.069 14.0951 101.069 14.0626C101.069 14.0302 101.069 13.9978 101.069 13.9655C101.069 13.9332 101.069 13.901 101.069 13.8688C101.069 13.8367 101.069 13.8046 101.069 13.7726C101.069 13.7406 101.069 13.7086 101.069 13.6768C101.069 13.6449 101.069 13.6132 101.069 13.5814C101.069 13.5497 101.069 13.5181 101.069 13.4865C101.069 13.455 101.069 13.4235 101.069 13.3921C101.069 13.3607 101.069 13.3293 101.069 13.298C101.069 13.2668 101.069 13.2356 101.069 13.2045C101.069 13.1733 101.069 13.1423 101.069 13.1113C101.069 13.0803 101.069 13.0494 101.069 13.0186C101.069 12.9878 101.069 12.957 101.069 12.9263C101.069 12.8957 101.069 12.865 101.069 12.8345C101.069 12.804 101.069 12.7735 101.069 12.7431C101.069 12.7127 101.069 12.6824 101.069 12.6521C101.069 12.6219 101.069 12.5917 101.069 12.5616C101.069 12.5315 101.069 12.5015 101.069 12.4715C101.069 12.4415 101.069 12.4116 101.069 12.3818C101.069 12.352 101.069 12.3223 101.069 12.2926C101.069 12.2629 101.069 12.2333 101.069 12.2038C101.069 12.1742 101.069 12.1448 101.069 12.1154C101.069 12.086 101.069 12.0567 101.069 12.0274C101.069 11.9982 101.069 11.969 101.069 11.9399C101.069 11.9108 101.069 11.8817 101.069 11.8528C101.069 11.8238 101.069 11.7949 101.069 11.7661C101.069 11.7373 101.069 11.7085 101.069 11.6798C101.069 11.6511 101.069 11.6225 101.069 11.594C101.069 11.5654 101.069 11.537 101.069 11.5086C101.069 11.4802 101.069 11.4518 101.069 11.4236C101.069 11.3953 101.069 11.3671 101.069 11.339C101.069 11.3108 101.069 11.2828 101.069 11.2548C101.069 11.2268 101.069 11.1989 101.069 11.1711C101.069 11.1432 101.069 11.1154 101.069 11.0877C101.069 11.06 101.069 11.0324 101.069 11.0048C101.069 10.9772 101.069 10.9497 101.069 10.9223C101.069 10.8948 101.069 10.8675 101.069 10.8402C101.069 10.8129 101.069 10.7857 101.069 10.7585C101.069 10.7313 101.069 10.7042 101.069 10.6772C101.069 10.6502 101.069 10.6232 101.069 10.5964C101.069 10.5695 101.069 10.5426 101.069 10.5159C101.069 10.4891 101.069 10.4625 101.069 10.4358C101.069 10.4092 101.069 10.3827 101.069 10.3562C101.069 10.3297 101.069 10.3033 101.069 10.2769C101.069 10.2506 101.069 10.2243 101.069 10.1981C101.069 10.1719 101.069 10.1458 101.069 10.1197C101.069 10.0936 101.069 10.0676 101.069 10.0416C101.069 10.0157 101.069 9.98982 101.069 9.96401C101.069 9.93819 101.069 9.91245 101.069 9.88677C101.069 9.86109 101.069 9.83548 101.069 9.80994C101.069 9.78439 101.069 9.75891 101.069 9.7335C101.069 9.70809 101.069 9.68274 101.069 9.65746C101.069 9.63218 101.069 9.60696 101.069 9.58181C101.069 9.55666 101.069 9.53158 101.069 9.50656C101.069 9.48154 101.069 9.45659 101.069 9.4317C101.069 9.40682 101.069 9.382 101.069 9.35724C101.069 9.33248 101.069 9.30779 101.069 9.28317C101.069 9.25854 101.069 9.23398 101.069 9.20948C101.069 9.18499 101.069 9.16056 101.069 9.13619C101.069 9.11182 101.069 9.08752 101.069 9.06328C101.069 9.03905 101.069 9.01487 101.069 8.99077C101.069 8.96666 101.069 8.94261 101.069 8.91864C101.069 8.89466 101.069 8.87074 101.069 8.84689C101.069 8.82304 101.069 8.79925 101.069 8.77553C101.069 8.7518 101.069 8.72814 101.069 8.70455C101.069 8.68095 101.069 8.65742 101.069 8.63395C101.069 8.61048 101.069 8.58708 101.069 8.56374C101.069 8.54039 101.069 8.51712 101.069 8.4939C101.069 8.47069 101.069 8.44753 101.069 8.42445C101.069 8.40136 101.069 8.37833 101.069 8.35537C101.069 8.33241 101.069 8.3095 101.069 8.28667C101.069 8.26383 101.069 8.24105 101.069 8.21834C101.069 8.19563 101.069 8.17298 101.069 8.15039C101.069 8.12781 101.069 8.10528 101.069 8.08282C101.069 8.06035 101.069 8.03795 101.069 8.01561C101.069 7.99328 101.069 7.971 101.069 7.94878C101.069 7.92657 101.069 7.90442 101.069 7.88232C101.069 7.86023 101.069 7.8382 101.069 7.81623C101.069 7.79427 101.069 7.77236 101.069 7.75051C101.069 7.72867 101.069 7.70688 101.069 7.68516C101.069 7.66344 101.069 7.64177 101.069 7.62017C101.069 7.59857 101.069 7.57703 101.069 7.55555C101.069 7.53407 101.069 7.51265 101.069 7.4913C101.069 7.46994 101.069 7.44864 101.069 7.4274C101.069 7.40617 101.069 7.38499 101.069 7.36387C101.069 7.34276 101.069 7.3217 101.069 7.30071C101.069 7.27971 101.069 7.25877 101.069 7.2379C101.069 7.21702 101.069 7.19621 101.069 7.17545C101.069 7.15469 101.069 7.134 101.069 7.11336C101.069 7.09272 101.069 7.07215 101.069 7.05163C101.069 7.03111 101.069 7.01065 101.069 6.99025C101.069 6.96985 101.069 6.94952 101.069 6.92923C101.069 6.90895 101.069 6.88873 101.069 6.86857C101.069 6.84841 101.069 6.8283 101.069 6.80826C101.069 6.78821 101.069 6.76823 101.069 6.7483C101.069 6.72837 101.069 6.7085 101.069 6.68869C101.069 6.66888 101.069 6.64913 101.069 6.62943C101.069 6.60974 101.069 6.5901 101.069 6.57052C101.069 6.55095 101.069 6.53143 101.069 6.51196C101.069 6.4925 101.069 6.4731 101.069 6.45375C101.069 6.4344 101.069 6.41512 101.069 6.39588C101.069 6.37665 101.069 6.35748 101.069 6.33836C101.069 6.31925 101.069 6.30019 101.069 6.28119C101.069 6.26218 101.069 6.24324 101.069 6.22435C101.069 6.20546 101.069 6.18663 101.069 6.16786C101.069 6.14909 101.069 6.13037 101.069 6.11171C101.069 6.09305 101.069 6.07444 101.069 6.0559C101.069 6.03735 101.069 6.01886 101.069 6.00043C101.069 5.98199 101.069 5.96361 101.069 5.94529C101.069 5.92697 101.069 5.9087 101.069 5.89049C101.069 5.87229 101.069 5.85413 101.069 5.83603C101.069 5.81794 101.069 5.79989 101.069 5.78191C101.069 5.76392 101.069 5.74599 101.069 5.72812C101.069 5.71024 101.069 5.69242 101.069 5.67466C101.069 5.65689 101.069 5.63918 101.069 5.62153C101.069 5.60388 101.069 5.58628 101.069 5.56873C101.069 5.55119 101.069 5.5337 101.069 5.51627C101.069 5.49883 101.069 5.48145 101.069 5.46413C101.069 5.4468 101.069 5.42953 101.069 5.41232C101.069 5.3951 101.069 5.37794 101.069 5.36083C101.069 5.34373 101.069 5.32667 101.069 5.30968C101.069 5.29268 101.069 5.27573 101.069 5.25884C101.069 5.24195 101.069 5.22512 101.069 5.20833C101.069 5.19155 101.069 5.17482 101.069 5.15815C101.069 5.14147 101.069 5.12485 101.069 5.10828C101.069 5.09171 101.069 5.0752 101.069 5.05873C101.069 5.04227 101.069 5.02586 101.069 5.00951C101.069 4.99315 101.069 4.97685 101.069 4.9606C101.069 4.94435 101.069 4.92816 101.069 4.91201C101.069 4.89587 101.069 4.87978 101.069 4.86374C101.069 4.8477 101.069 4.83171 101.069 4.81578C101.069 4.79985 101.069 4.78397 101.069 4.76814C101.069 4.75231 101.069 4.73653 101.069 4.72081C101.069 4.70508 101.069 4.68941 101.069 4.67379C101.069 4.65817 101.069 4.6426 101.069 4.62708C101.069 4.61157 101.069 4.5961 101.069 4.58069C101.069 4.56527 101.069 4.54991 101.069 4.5346C101.069 4.51929 101.069 4.50403 101.069 4.48882C101.069 4.47361 101.069 4.45846 101.069 4.44335C101.069 4.42824 101.069 4.41319 101.069 4.39818C101.069 4.38318 101.069 4.36823 101.069 4.35332C101.069 4.33842 101.069 4.32357 101.069 4.30877C101.069 4.29396 101.069 4.27921 101.069 4.26451C101.069 4.24981 101.069 4.23516 101.069 4.22056C101.069 4.20596 101.069 4.19141 101.069 4.17691C101.069 4.16241 101.069 4.14796 101.069 4.13356C101.069 4.11916 101.069 4.10481 101.069 4.09051C101.069 4.07621 101.069 4.06196 101.069 4.04775C101.069 4.03355 101.069 4.0194 101.069 4.0053C101.069 3.99119 101.069 3.97714 101.069 3.96314C101.069 3.94913 101.069 3.93518 101.069 3.92127C101.069 3.90736 101.069 3.89351 101.069 3.8797C101.069 3.86589 101.069 3.85213 101.069 3.83842C101.069 3.82471 101.069 3.81104 101.069 3.79743C101.069 3.78382 101.069 3.77025 101.069 3.75673C101.069 3.74322 101.069 3.72975 101.069 3.71633C101.069 3.70291 101.069 3.68953 101.069 3.67621C101.069 3.66288 101.069 3.64961 101.069 3.63638C101.069 3.62315 101.069 3.60997 101.069 3.59683C101.069 3.5837 101.069 3.57061 101.069 3.55757C101.069 3.54453 101.069 3.53154 101.069 3.5186C101.069 3.50565 101.069 3.49276 101.069 3.47991C101.069 3.46706 101.069 3.45425 101.069 3.4415C101.069 3.42874 101.069 3.41603 101.069 3.40337C101.069 3.39071 101.069 3.37809 101.069 3.36553C101.069 3.35296 101.069 3.34043 101.069 3.32796C101.069 3.31548 101.069 3.30305 101.069 3.29067C101.069 3.27829 101.069 3.26595 101.069 3.25366C101.069 3.24137 101.069 3.22912 101.069 3.21692C101.069 3.20472 101.069 3.19257 101.069 3.18046C101.069 3.16835 101.069 3.15629 101.069 3.14428C101.069 3.13226 101.069 3.12029 101.069 3.10836C101.069 3.09644 101.069 3.08456 101.069 3.07272C101.069 3.06089 101.069 3.0491 101.069 3.03735C101.069 3.02561 101.069 3.01391 101.069 3.00226C101.069 2.9906 101.069 2.97899 101.069 2.96743C101.069 2.95586 101.069 2.94434 101.069 2.93286C101.069 2.92139 101.069 2.90996 101.069 2.89857C101.069 2.88718 101.069 2.87584 101.069 2.86454C101.069 2.85324 101.069 2.84199 101.069 2.83078C101.069 2.81957 101.069 2.8084 101.069 2.79728C101.069 2.78616 101.069 2.77508 101.069 2.76404C101.069 2.75301 101.069 2.74201 101.069 2.73107C101.069 2.72012 101.069 2.70921 101.069 2.69835C101.069 2.68749 101.069 2.67667 101.069 2.6659C101.069 2.65512 101.069 2.64439 101.069 2.6337C101.069 2.62301 101.069 2.61237 101.069 2.60177C101.069 2.59116 101.069 2.5806 101.069 2.57009C101.069 2.55957 101.069 2.54909 101.069 2.53866C101.069 2.52823 101.069 2.51784 101.069 2.50749C101.069 2.49714 101.069 2.48684 101.069 2.47657C101.069 2.46631 101.069 2.45609 101.069 2.44591C101.069 2.43573 101.069 2.42559 101.069 2.4155C101.069 2.4054 101.069 2.39535 101.069 2.38534C101.069 2.37532 101.069 2.36535 101.069 2.35542C101.069 2.34549 101.069 2.33561 101.069 2.32576C101.069 2.31591 101.069 2.30611 101.069 2.29634C101.069 2.28658 101.069 2.27686 101.069 2.26718C101.069 2.25749 101.069 2.24785 101.069 2.23825C101.069 2.22865 101.069 2.21909 101.069 2.20957C101.069 2.20005 101.069 2.19057 101.069 2.18114C101.069 2.1717 101.069 2.1623 101.069 2.15294C101.069 2.14358 101.069 2.13427 101.069 2.12499C101.069 2.11571 101.069 2.10648 101.069 2.09728C101.069 2.08808 101.069 2.07892 101.069 2.06981C101.069 2.06069 101.069 2.05161 101.069 2.04257C101.069 2.03353 101.069 2.02453 101.069 2.01557C101.069 2.00661 101.069 1.99769 101.069 1.98881C101.069 1.97993 101.069 1.97109 101.069 1.96229C101.069 1.95348 101.069 1.94472 101.069 1.93599C101.069 1.92727 101.069 1.91858 101.069 1.90994C101.069 1.90129 101.069 1.89268 101.069 1.88411C101.069 1.87554 101.069 1.86701 101.069 1.85851C101.069 1.85002 101.069 1.84157 101.069 1.83315C101.069 1.82473 101.069 1.81635 101.069 1.80801C101.069 1.79967 101.069 1.79137 101.069 1.7831C101.069 1.77484 101.069 1.76661 101.069 1.75842C101.069 1.75023 101.069 1.74208 101.069 1.73397C101.069 1.72585 101.069 1.71778 101.069 1.70974C101.069 1.7017 101.069 1.6937 101.069 1.68573C101.069 1.67777 101.069 1.66984 101.069 1.66195C101.069 1.65406 101.069 1.6462 101.069 1.63839C101.069 1.63057 101.069 1.62279 101.069 1.61504C101.069 1.6073 101.069 1.59959 101.069 1.59192C101.069 1.58425 101.069 1.57662 101.069 1.56902C101.069 1.56142 101.069 1.55386 101.069 1.54633C101.069 1.53881 101.069 1.53132 101.069 1.52387C101.069 1.51641 101.069 1.509 101.069 1.50161C101.069 1.49423 101.069 1.48689 101.069 1.47958C101.069 1.47227 101.069 1.46499 101.069 1.45775C101.069 1.45051 101.069 1.44331 101.069 1.43614C101.069 1.42897 101.069 1.42184 101.069 1.41474C101.069 1.40764 101.069 1.40058 101.069 1.39355C101.069 1.38652 101.069 1.37953 101.069 1.37257C101.069 1.36561 101.069 1.35869 101.069 1.3518C101.069 1.34491 101.069 1.33805 101.069 1.33123C101.069 1.32441 101.069 1.31763 101.069 1.31087C101.069 1.30412 101.069 1.29741 101.069 1.29072C101.069 1.28404 101.069 1.27739 101.069 1.27077C101.069 1.26416 101.069 1.25758 101.069 1.25103C101.069 1.24448 101.069 1.23797 101.069 1.23149C101.069 1.225 101.069 1.21856 101.069 1.21214C101.069 1.20573 101.069 1.19935 101.069 1.193C101.069 1.18666 101.069 1.18034 101.069 1.17406C101.069 1.16778 101.069 1.16153 101.069 1.15532C101.069 1.1491 101.069 1.14292 101.069 1.13677C101.069 1.13062 101.069 1.1245 101.069 1.11842C101.069 1.11233 101.069 1.10628 101.069 1.10026C101.069 1.09424 101.069 1.08826 101.069 1.0823C101.069 1.07635 101.069 1.07042 101.069 1.06453C101.069 1.05864 101.069 1.05278 101.069 1.04696C101.069 1.04113 101.069 1.03534 101.069 1.02957C101.069 1.02381 101.069 1.01808 101.069 1.01238C101.069 1.00668 101.069 1.00101 101.069 0.99537C101.069 0.989732 101.069 0.984126 101.069 0.978551C101.069 0.972976 101.069 0.967432 101.069 0.961919C101.069 0.956406 101.069 0.950924 101.069 0.945473C101.069 0.940022 101.069 0.934601 101.069 0.929211C101.069 0.923822 101.069 0.918463 101.069 0.913134C101.069 0.907805 101.069 0.902507 101.069 0.897239C101.069 0.891971 101.069 0.886734 101.069 0.881526C101.069 0.876319 101.069 0.871141 101.069 0.865994C101.069 0.860846 101.069 0.855729 101.069 0.850641C101.069 0.845553 101.069 0.840496 101.069 0.835467C101.069 0.830439 101.069 0.82544 101.069 0.820471C101.069 0.815501 101.069 0.810562 101.069 0.805651C101.069 0.80074 101.069 0.795859 101.069 0.791007C101.069 0.786154 101.069 0.781331 101.069 0.776537C101.069 0.771743 101.069 0.766977 101.069 0.762241C101.069 0.757504 101.069 0.752796 101.069 0.748117C101.069 0.743437 101.069 0.738787 101.069 0.734164C101.069 0.729542 101.069 0.724948 101.069 0.720382C101.069 0.715817 101.069 0.711279 101.069 0.70677C101.069 0.70226 101.069 0.697779 101.069 0.693326C101.069 0.688872 101.069 0.684447 101.069 0.680049C101.069 0.675651 101.069 0.671281 101.069 0.666938C101.069 0.662595 101.069 0.65828 101.069 0.653993C101.069 0.649705 101.069 0.645445 101.069 0.641212C101.069 0.636978 101.069 0.632773 101.069 0.628594C101.069 0.624415 101.069 0.620263 101.069 0.616138C101.069 0.612013 101.069 0.607915 101.069 0.603843C101.069 0.599772 101.069 0.595727 101.069 0.591709C101.069 0.587691 101.069 0.583699 101.069 0.579734C101.069 0.575768 101.069 0.571829 101.069 0.567916C101.069 0.564004 101.069 0.560117 101.069 0.556256C101.069 0.552396 101.069 0.548561 101.069 0.544752C101.069 0.540943 101.069 0.53716 101.069 0.533403C101.069 0.529645 101.069 0.525914 101.069 0.522208C101.069 0.518501 101.069 0.514821 101.069 0.511165C101.069 0.50751 101.069 0.50388 101.069 0.500275C101.069 0.49667 101.069 0.49309 101.069 0.489535C101.069 0.48598 101.069 0.482451 101.069 0.478946C101.069 0.475441 101.069 0.47196 101.069 0.468505C101.069 0.465049 101.069 0.461618 101.069 0.458212C101.069 0.454805 101.069 0.451423 101.069 0.448065C101.069 0.444708 101.069 0.441374 101.069 0.438065C101.069 0.434755 101.069 0.43147 101.069 0.428209C101.069 0.424948 101.069 0.42171 101.069 0.418497C101.069 0.415283 101.069 0.412093 101.069 0.408927C101.069 0.405761 101.069 0.402618 101.069 0.399499C101.069 0.39638 101.069 0.393284 101.069 0.390212C101.069 0.387139 101.069 0.38409 101.069 0.381064C101.069 0.378038 101.069 0.375035 101.069 0.372055C101.069 0.369075 101.069 0.366117 101.069 0.363183C101.069 0.360249 101.069 0.357337 101.069 0.354448C101.069 0.351559 101.069 0.348692 101.069 0.345848C101.069 0.343004 101.069 0.340182 101.069 0.337383C101.069 0.334583 101.069 0.331806 101.069 0.329051C101.069 0.326295 101.069 0.323562 101.069 0.320851C101.069 0.31814 101.069 0.31545 101.069 0.312783C101.069 0.310115 101.069 0.307469 101.069 0.304845C101.069 0.30222 101.069 0.299617 101.069 0.297036C101.069 0.294455 101.069 0.291894 101.069 0.289356C101.069 0.286817 101.069 0.284299 101.069 0.281802C101.069 0.279306 101.069 0.27683 101.069 0.274375C101.069 0.271921 101.069 0.269487 101.069 0.267073C101.069 0.26466 101.069 0.262268 101.069 0.259896C101.069 0.257524 101.069 0.255172 101.069 0.252841C101.069 0.25051 101.069 0.248199 101.069 0.245909C101.069 0.243618 101.069 0.241348 101.069 0.239097C101.069 0.236847 101.069 0.234616 101.069 0.232406C101.069 0.230195 101.069 0.228005 101.069 0.225833C101.069 0.223662 101.069 0.221511 101.069 0.219379C101.069 0.217247 101.069 0.215135 101.069 0.213041C101.069 0.210948 101.069 0.208875 101.069 0.20682C101.069 0.204765 101.069 0.20273 101.069 0.200713C101.069 0.198697 101.069 0.196699 101.069 0.19472C101.069 0.192742 101.069 0.190782 101.069 0.18884C101.069 0.186899 101.069 0.184976 101.069 0.183072C101.069 0.181168 101.069 0.179282 101.069 0.177415C101.069 0.175547 101.069 0.173698 101.069 0.171867C101.069 0.170036 101.069 0.168223 101.069 0.166428C101.069 0.164633 101.069 0.162856 101.069 0.161097C101.069 0.159338 101.069 0.157596 101.069 0.155872C101.069 0.154148 101.069 0.152442 101.069 0.150753C101.069 0.149064 101.069 0.147393 101.069 0.145739C101.069 0.144085 101.069 0.142448 101.069 0.140828C101.069 0.139208 101.069 0.137606 101.069 0.13602C101.069 0.134434 101.069 0.132865 101.069 0.131313C101.069 0.129761 101.069 0.128226 101.069 0.126707C101.069 0.125188 101.069 0.123686 101.069 0.1222C101.069 0.120714 101.069 0.119245 101.069 0.117792C101.069 0.116339 101.069 0.114902 101.069 0.113481C101.069 0.11206 101.069 0.110655 101.069 0.109266C101.069 0.107877 101.069 0.106504 101.069 0.105147C101.069 0.10379 101.069 0.102448 101.069 0.101122C101.069 0.0997963 101.069 0.0984859 101.069 0.0971908C101.069 0.0958957 101.069 0.094616 101.069 0.0933515C101.069 0.092087 101.069 0.0908377 101.069 0.0896034C101.069 0.0883692 101.069 0.08715 101.069 0.0859456C101.069 0.0847412 101.069 0.0835517 101.069 0.0823769C101.069 0.0812021 101.069 0.080042 101.069 0.0788964C101.069 0.0777508 101.069 0.0766198 101.069 0.0755031C101.069 0.0743863 101.069 0.073284 101.069 0.0721958C101.069 0.0711076 101.069 0.0700336 101.069 0.0689736C101.069 0.0679136 101.069 0.0668676 101.069 0.0658354C101.069 0.0648033 101.069 0.0637849 101.069 0.0627803C101.069 0.0617756 101.069 0.0607846 101.069 0.0598071C101.069 0.0588296 101.069 0.0578656 101.069 0.0569149C101.069 0.0559642 101.069 0.0550268 101.069 0.0541026C101.069 0.0531784 101.069 0.0522673 101.069 0.0513692C101.069 0.0504712 101.069 0.0495861 101.069 0.0487138C101.069 0.0478414 101.069 0.046982 101.069 0.0461351C101.069 0.0452882 101.069 0.044454 101.069 0.0436323C101.069 0.0428105 101.069 0.0420012 101.069 0.0412042C101.069 0.0404072 101.069 0.0396225 101.069 0.0388499C101.069 0.0380773 101.069 0.0373169 101.069 0.0365684C101.069 0.0358199 101.069 0.0350833 101.069 0.0343585C101.069 0.0336337 101.069 0.0329207 101.069 0.0322193C101.069 0.0315179 101.069 0.0308282 101.069 0.0301498C101.069 0.0294715 101.069 0.0288046 101.069 0.0281489C101.069 0.0274933 101.069 0.0268489 101.069 0.0262156C101.069 0.0255823 101.069 0.0249601 101.069 0.0243488C101.069 0.0237376 101.069 0.0231372 101.069 0.0225476C101.069 0.021958 101.069 0.0213792 101.069 0.0208109C101.069 0.0202426 101.069 0.019685 101.069 0.0191377C101.069 0.0185904 101.069 0.0180535 101.069 0.0175269C101.069 0.0170003 101.069 0.0164839 101.069 0.0159775C101.069 0.0154712 101.069 0.0149749 101.069 0.0144886C101.069 0.0140022 101.069 0.0135257 101.069 0.013059C101.069 0.0125922 101.069 0.0121352 101.069 0.0116877C101.069 0.0112402 101.069 0.0108023 101.069 0.0103738C101.069 0.00994522 101.069 0.00952606 101.069 0.0091161C101.069 0.00870614 101.069 0.00830539 101.069 0.00791368C101.069 0.00752197 101.069 0.0071393 101.069 0.00676549C101.069 0.00639169 101.069 0.00602674 101.069 0.0056705C101.069 0.00531425 101.069 0.0049667 101.069 0.00462767C101.069 0.00428865 101.069 0.00395814 101.069 0.00363599C101.069 0.00331384 101.069 0.00300004 101.069 0.00269442C101.069 0.0023888 101.069 0.00209136 101.069 0.00180193C101.069 0.00151251 101.069 0.00123108 101.069 0.000957503C101.069 0.000683921 101.069 0.000418178 101.069 0.0001601C101.069 -9.79765e-05 101.069 -0.000348387 101.069 -0.000591302C101.069 -0.000834217 101.069 -0.00106964 101.069 -0.00129773C101.069 -0.00152583 101.069 -0.0017466 101.069 -0.00196022C101.069 -0.00217384 101.069 -0.00238031 101.069 -0.00257979C101.069 -0.00277928 101.069 -0.00297178 101.069 -0.00315748C101.069 -0.00334317 101.069 -0.00352206 101.069 -0.00369431C101.069 -0.00386655 101.069 -0.00403216 101.069 -0.0041913C101.069 -0.00435044 101.069 -0.00450312 101.069 -0.0046495C101.069 -0.00479587 101.069 -0.00493596 101.069 -0.00506992C101.069 -0.00520387 101.069 -0.00533171 101.069 -0.00545359C101.069 -0.00557547 101.069 -0.0056914 101.069 -0.00580154C101.069 -0.00591169 101.069 -0.00601606 101.069 -0.00611481C101.069 -0.00621356 101.069 -0.00630671 101.069 -0.00639441C101.069 -0.00648212 101.069 -0.00656438 101.069 -0.00664138C101.069 -0.00671838 101.069 -0.00679011 101.069 -0.00685675C101.069 -0.00692338 101.069 -0.00698492 101.069 -0.00704154C101.069 -0.00709815 101.069 -0.00714984 101.069 -0.00719678C101.069 -0.00724371 101.069 -0.00728589 101.069 -0.0073235C101.069 -0.0073611 101.069 -0.00739411 101.069 -0.00742272C101.069 -0.00745133 101.069 -0.00747553 101.069 -0.00749548C101.069 -0.00751544 101.069 -0.00753116 101.069 -0.00754281C101.069 -0.00755446 101.069 -0.00756204 101.069 -0.00756573C100.069 -0.00756941 99.0692 -0.0075692 99.0692 -0.00756526C99.0692 -0.00756133 99.0692 -0.00755367 99.0692 -0.00754245C99.0692 -0.00753124 99.0692 -0.00751647 99.0692 -0.00749831C99.0692 -0.00748016 99.0692 -0.00745863 99.0692 -0.00743388C99.0692 -0.00740914 99.0692 -0.00738118 99.0692 -0.00735018C99.0692 -0.00731919 99.0692 -0.00728515 99.0692 -0.00724824C99.0692 -0.00721134 99.0692 -0.00717157 99.0692 -0.00712909C99.0692 -0.00708662 99.0692 -0.00704146 99.0692 -0.00699376C99.0692 -0.00694607 99.0692 -0.00689585 99.0692 -0.00684328C99.0692 -0.0067907 99.0692 -0.00673578 99.0692 -0.00667867C99.0692 -0.00662155 99.0692 -0.00656226 99.0692 -0.00650096C99.0692 -0.00643965 99.0692 -0.00637633 99.0692 -0.00631118C99.0692 -0.00624602 99.0692 -0.00617902 99.0692 -0.00611035C99.0692 -0.00604169 99.0692 -0.00597135 99.0692 -0.00589952C99.0692 -0.00582769 99.0692 -0.00575436 99.0692 -0.0056797C99.0692 -0.00560504 99.0692 -0.00552906 99.0692 -0.00545192C99.0692 -0.00537479 99.0692 -0.00529649 99.0692 -0.00521722C99.0692 -0.00513794 99.0692 -0.00505768 99.0692 -0.00497661C99.0692 -0.00489554 99.0692 -0.00481366 99.0692 -0.00473113C99.0692 -0.00464861 99.0692 -0.00456544 99.0692 -0.00448181C99.0692 -0.00439817 99.0692 -0.00431407 99.0692 -0.00422967C99.0692 -0.00414527 99.0692 -0.00406057 99.0692 -0.00397574C99.0692 -0.00389092 99.0692 -0.00380596 99.0692 -0.00372105C99.0692 -0.00363615 99.0692 -0.00355128 99.0692 -0.00346664C99.0692 -0.00338199 99.0692 -0.00329756 99.0692 -0.00321351C99.0692 -0.00312947 99.0692 -0.00304581 99.0692 -0.00296272C99.0692 -0.00287962 99.0692 -0.00279708 99.0692 -0.00271527C99.0692 -0.00263346 99.0692 -0.00255238 99.0692 -0.00247221C99.0692 -0.00239203 99.0692 -0.00231276 99.0692 -0.00223455C99.0692 -0.00215635 99.0692 -0.00207922 99.0692 -0.00200334C99.0692 -0.00192745 99.0692 -0.00185281 99.0692 -0.00177959C99.0692 -0.00170636 99.0692 -0.00163455 99.0692 -0.00156433C99.0692 -0.00149411 99.0692 -0.00142547 99.0692 -0.00135859C99.0692 -0.00129172 99.0692 -0.0012266 99.0692 -0.00116341C99.0692 -0.00110022 99.0692 -0.00103896 99.0692 -0.000979801C99.0692 -0.000920643 99.0692 -0.000863586 99.0692 -0.000808801C99.0692 -0.000754016 99.0692 -0.000701504 99.0692 -0.000651435C99.0692 -0.000601367 99.0692 -0.000553743 99.0692 -0.000508733C99.0692 -0.000463724 99.0692 -0.000421329 99.0692 -0.000381722C99.0692 -0.000342114 99.0692 -0.000305293 99.0692 -0.00027143C99.0692 -0.000237566 99.0692 -0.000206661 99.0692 -0.000178885C99.0692 -0.000151109 99.0692 -0.000126462 99.0692 -0.000105117C99.0692 -8.37701e-05 99.0692 -6.57248e-05 99.0692 -5.11515e-05C99.0692 -3.65782e-05 99.0692 -2.54763e-05 99.0692 -1.80183e-05C99.0692 -1.05603e-05 99.0692 -6.74557e-06 100.069 -6.74557e-06C101.069 -6.74557e-06 101.069 -1.05603e-05 101.069 -1.80183e-05C101.069 -2.54763e-05 101.069 -3.65782e-05 101.069 -5.11515e-05C101.069 -6.57248e-05 101.069 -8.37701e-05 101.069 -0.000105117C101.069 -0.000126462 101.069 -0.000151109 101.069 -0.000178885C101.069 -0.000206661 101.069 -0.000237566 101.069 -0.00027143C101.069 -0.000305293 101.069 -0.000342114 101.069 -0.000381722C101.069 -0.000421329 101.069 -0.000463724 101.069 -0.000508733C101.069 -0.000553743 101.069 -0.000601367 101.069 -0.000651435C101.069 -0.000701504 101.069 -0.000754016 101.069 -0.000808801C101.069 -0.000863586 101.069 -0.000920643 101.069 -0.000979801C101.069 -0.00103896 101.069 -0.00110022 101.069 -0.00116341C101.069 -0.0012266 101.069 -0.00129172 101.069 -0.00135859C101.069 -0.00142547 101.069 -0.00149411 101.069 -0.00156433C101.069 -0.00163455 101.069 -0.00170636 101.069 -0.00177959C101.069 -0.00185281 101.069 -0.00192745 101.069 -0.00200334C101.069 -0.00207922 101.069 -0.00215635 101.069 -0.00223455C101.069 -0.00231276 101.069 -0.00239203 101.069 -0.00247221C101.069 -0.00255238 101.069 -0.00263346 101.069 -0.00271527C101.069 -0.00279708 101.069 -0.00287962 101.069 -0.00296272C101.069 -0.00304581 101.069 -0.00312947 101.069 -0.00321351C101.069 -0.00329756 101.069 -0.00338199 101.069 -0.00346664C101.069 -0.00355128 101.069 -0.00363615 101.069 -0.00372105C101.069 -0.00380596 101.069 -0.00389092 101.069 -0.00397574C101.069 -0.00406057 101.069 -0.00414527 101.069 -0.00422967C101.069 -0.00431407 101.069 -0.00439817 101.069 -0.00448181C101.069 -0.00456544 101.069 -0.00464861 101.069 -0.00473113C101.069 -0.00481366 101.069 -0.00489554 101.069 -0.00497661C101.069 -0.00505768 101.069 -0.00513794 101.069 -0.00521722C101.069 -0.00529649 101.069 -0.00537479 101.069 -0.00545192C101.069 -0.00552906 101.069 -0.00560504 101.069 -0.0056797C101.069 -0.00575436 101.069 -0.00582769 101.069 -0.00589952C101.069 -0.00597135 101.069 -0.00604169 101.069 -0.00611035C101.069 -0.00617902 101.069 -0.00624602 101.069 -0.00631118C101.069 -0.00637633 101.069 -0.00643965 101.069 -0.00650096C101.069 -0.00656226 101.069 -0.00662155 101.069 -0.00667867C101.069 -0.00673578 101.069 -0.0067907 101.069 -0.00684328C101.069 -0.00689585 101.069 -0.00694607 101.069 -0.00699376C101.069 -0.00704146 101.069 -0.00708662 101.069 -0.00712909C101.069 -0.00717157 101.069 -0.00721134 101.069 -0.00724824C101.069 -0.00728515 101.069 -0.00731919 101.069 -0.00735018C101.069 -0.00738118 101.069 -0.00740914 101.069 -0.00743388C101.069 -0.00745863 101.069 -0.00748016 101.069 -0.00749831C101.069 -0.00751647 101.069 -0.00753124 101.069 -0.00754245C101.069 -0.00755367 101.069 -0.00756133 101.069 -0.00756526C101.069 -0.0075692 100.069 -0.00756941 99.0692 -0.00756573C99.0692 -0.00756204 99.0692 -0.00755446 99.0692 -0.00754281C99.0692 -0.00753116 99.0692 -0.00751544 99.0692 -0.00749548C99.0692 -0.00747553 99.0692 -0.00745133 99.0692 -0.00742272C99.0692 -0.00739411 99.0692 -0.0073611 99.0692 -0.0073235C99.0692 -0.00728589 99.0692 -0.00724371 99.0692 -0.00719678C99.0692 -0.00714984 99.0692 -0.00709815 99.0692 -0.00704154C99.0692 -0.00698492 99.0692 -0.00692338 99.0692 -0.00685675C99.0692 -0.00679011 99.0692 -0.00671838 99.0692 -0.00664138C99.0692 -0.00656438 99.0692 -0.00648212 99.0692 -0.00639441C99.0692 -0.00630671 99.0692 -0.00621356 99.0692 -0.00611481C99.0692 -0.00601606 99.0692 -0.00591169 99.0692 -0.00580154C99.0692 -0.0056914 99.0692 -0.00557547 99.0692 -0.00545359C99.0692 -0.00533171 99.0692 -0.00520387 99.0692 -0.00506992C99.0692 -0.00493596 99.0692 -0.00479587 99.0692 -0.0046495C99.0692 -0.00450312 99.0692 -0.00435044 99.0692 -0.0041913C99.0692 -0.00403216 99.0692 -0.00386655 99.0692 -0.00369431C99.0692 -0.00352206 99.0692 -0.00334317 99.0692 -0.00315748C99.0692 -0.00297178 99.0692 -0.00277928 99.0692 -0.00257979C99.0692 -0.00238031 99.0692 -0.00217384 99.0692 -0.00196022C99.0692 -0.0017466 99.0692 -0.00152583 99.0692 -0.00129773C99.0692 -0.00106964 99.0692 -0.000834217 99.0692 -0.000591302C99.0692 -0.000348387 99.0692 -9.79765e-05 99.0692 0.0001601C99.0692 0.000418178 99.0692 0.000683921 99.0692 0.000957503C99.0692 0.00123108 99.0692 0.00151251 99.0692 0.00180193C99.0692 0.00209136 99.0692 0.0023888 99.0692 0.00269442C99.0692 0.00300004 99.0692 0.00331384 99.0692 0.00363599C99.0692 0.00395814 99.0692 0.00428865 99.0692 0.00462767C99.0692 0.0049667 99.0692 0.00531425 99.0692 0.0056705C99.0692 0.00602674 99.0692 0.00639169 99.0692 0.00676549C99.0692 0.0071393 99.0692 0.00752197 99.0692 0.00791368C99.0692 0.00830539 99.0692 0.00870614 99.0692 0.0091161C99.0692 0.00952606 99.0692 0.00994522 99.0692 0.0103738C99.0692 0.0108023 99.0692 0.0112402 99.0692 0.0116877C99.0692 0.0121352 99.0692 0.0125922 99.0692 0.013059C99.0692 0.0135257 99.0692 0.0140022 99.0692 0.0144886C99.0692 0.0149749 99.0692 0.0154712 99.0692 0.0159775C99.0692 0.0164839 99.0692 0.0170003 99.0692 0.0175269C99.0692 0.0180535 99.0692 0.0185904 99.0692 0.0191377C99.0692 0.019685 99.0692 0.0202426 99.0692 0.0208109C99.0692 0.0213792 99.0692 0.021958 99.0692 0.0225476C99.0692 0.0231372 99.0692 0.0237376 99.0692 0.0243488C99.0692 0.0249601 99.0692 0.0255823 99.0692 0.0262156C99.0692 0.0268489 99.0692 0.0274933 99.0692 0.0281489C99.0692 0.0288046 99.0692 0.0294715 99.0692 0.0301498C99.0692 0.0308282 99.0692 0.0315179 99.0692 0.0322193C99.0692 0.0329207 99.0692 0.0336337 99.0692 0.0343585C99.0692 0.0350833 99.0692 0.0358199 99.0692 0.0365684C99.0692 0.0373169 99.0692 0.0380773 99.0692 0.0388499C99.0692 0.0396225 99.0692 0.0404072 99.0692 0.0412042C99.0692 0.0420012 99.0692 0.0428105 99.0692 0.0436323C99.0692 0.044454 99.0692 0.0452882 99.0692 0.0461351C99.0692 0.046982 99.0692 0.0478414 99.0692 0.0487138C99.0692 0.0495861 99.0692 0.0504712 99.0692 0.0513692C99.0692 0.0522673 99.0692 0.0531784 99.0692 0.0541026C99.0692 0.0550268 99.0692 0.0559642 99.0692 0.0569149C99.0692 0.0578656 99.0692 0.0588296 99.0692 0.0598071C99.0692 0.0607846 99.0692 0.0617756 99.0692 0.0627803C99.0692 0.0637849 99.0692 0.0648033 99.0692 0.0658354C99.0692 0.0668676 99.0692 0.0679136 99.0692 0.0689736C99.0692 0.0700336 99.0692 0.0711076 99.0692 0.0721958C99.0692 0.073284 99.0692 0.0743863 99.0692 0.0755031C99.0692 0.0766198 99.0692 0.0777508 99.0692 0.0788964C99.0692 0.080042 99.0692 0.0812021 99.0692 0.0823769C99.0692 0.0835517 99.0692 0.0847412 99.0692 0.0859456C99.0692 0.08715 99.0692 0.0883692 99.0692 0.0896034C99.0692 0.0908377 99.0692 0.092087 99.0692 0.0933515C99.0692 0.094616 99.0692 0.0958957 99.0692 0.0971908C99.0692 0.0984859 99.0692 0.0997963 99.0692 0.101122C99.0692 0.102448 99.0692 0.10379 99.0692 0.105147C99.0692 0.106504 99.0692 0.107877 99.0692 0.109266C99.0692 0.110655 99.0692 0.11206 99.0692 0.113481C99.0692 0.114902 99.0692 0.116339 99.0692 0.117792C99.0692 0.119245 99.0692 0.120714 99.0692 0.1222C99.0692 0.123686 99.0692 0.125188 99.0692 0.126707C99.0692 0.128226 99.0692 0.129761 99.0692 0.131313C99.0692 0.132865 99.0692 0.134434 99.0692 0.13602C99.0692 0.137606 99.0692 0.139208 99.0692 0.140828C99.0692 0.142448 99.0692 0.144085 99.0692 0.145739C99.0692 0.147393 99.0692 0.149064 99.0692 0.150753C99.0692 0.152442 99.0692 0.154148 99.0692 0.155872C99.0692 0.157596 99.0692 0.159338 99.0692 0.161097C99.0692 0.162856 99.0692 0.164633 99.0692 0.166428C99.0692 0.168223 99.0692 0.170036 99.0692 0.171867C99.0692 0.173698 99.0692 0.175547 99.0692 0.177415C99.0692 0.179282 99.0692 0.181168 99.0692 0.183072C99.0692 0.184976 99.0692 0.186899 99.0692 0.18884C99.0692 0.190782 99.0692 0.192742 99.0692 0.19472C99.0692 0.196699 99.0692 0.198697 99.0692 0.200713C99.0692 0.20273 99.0692 0.204765 99.0692 0.20682C99.0692 0.208875 99.0692 0.210948 99.0692 0.213041C99.0692 0.215135 99.0692 0.217247 99.0692 0.219379C99.0692 0.221511 99.0692 0.223662 99.0692 0.225833C99.0692 0.228005 99.0692 0.230195 99.0692 0.232406C99.0692 0.234616 99.0692 0.236847 99.0692 0.239097C99.0692 0.241348 99.0692 0.243618 99.0692 0.245909C99.0692 0.248199 99.0692 0.25051 99.0692 0.252841C99.0692 0.255172 99.0692 0.257524 99.0692 0.259896C99.0692 0.262268 99.0692 0.26466 99.0692 0.267073C99.0692 0.269487 99.0692 0.271921 99.0692 0.274375C99.0692 0.27683 99.0692 0.279306 99.0692 0.281802C99.0692 0.284299 99.0692 0.286817 99.0692 0.289356C99.0692 0.291894 99.0692 0.294455 99.0692 0.297036C99.0692 0.299617 99.0692 0.30222 99.0692 0.304845C99.0692 0.307469 99.0692 0.310115 99.0692 0.312783C99.0692 0.31545 99.0692 0.31814 99.0692 0.320851C99.0692 0.323562 99.0692 0.326295 99.0692 0.329051C99.0692 0.331806 99.0692 0.334583 99.0692 0.337383C99.0692 0.340182 99.0692 0.343004 99.0692 0.345848C99.0692 0.348692 99.0692 0.351559 99.0692 0.354448C99.0692 0.357337 99.0692 0.360249 99.0692 0.363183C99.0692 0.366117 99.0692 0.369075 99.0692 0.372055C99.0692 0.375035 99.0692 0.378038 99.0692 0.381064C99.0692 0.38409 99.0692 0.387139 99.0692 0.390212C99.0692 0.393284 99.0692 0.39638 99.0692 0.399499C99.0692 0.402618 99.0692 0.405761 99.0692 0.408927C99.0692 0.412093 99.0692 0.415283 99.0692 0.418497C99.0692 0.42171 99.0692 0.424948 99.0692 0.428209C99.0692 0.43147 99.0692 0.434755 99.0692 0.438065C99.0692 0.441374 99.0692 0.444708 99.0692 0.448065C99.0692 0.451423 99.0692 0.454805 99.0692 0.458212C99.0692 0.461618 99.0692 0.465049 99.0692 0.468505C99.0692 0.47196 99.0692 0.475441 99.0692 0.478946C99.0692 0.482451 99.0692 0.48598 99.0692 0.489535C99.0692 0.49309 99.0692 0.49667 99.0692 0.500275C99.0692 0.50388 99.0692 0.50751 99.0692 0.511165C99.0692 0.514821 99.0692 0.518501 99.0692 0.522208C99.0692 0.525914 99.0692 0.529645 99.0692 0.533403C99.0692 0.53716 99.0692 0.540943 99.0692 0.544752C99.0692 0.548561 99.0692 0.552396 99.0692 0.556256C99.0692 0.560117 99.0692 0.564004 99.0692 0.567916C99.0692 0.571829 99.0692 0.575768 99.0692 0.579734C99.0692 0.583699 99.0692 0.587691 99.0692 0.591709C99.0692 0.595727 99.0692 0.599772 99.0692 0.603843C99.0692 0.607915 99.0692 0.612013 99.0692 0.616138C99.0692 0.620263 99.0692 0.624415 99.0692 0.628594C99.0692 0.632773 99.0692 0.636978 99.0692 0.641212C99.0692 0.645445 99.0692 0.649705 99.0692 0.653993C99.0692 0.65828 99.0692 0.662595 99.0692 0.666938C99.0692 0.671281 99.0692 0.675651 99.0692 0.680049C99.0692 0.684447 99.0692 0.688872 99.0692 0.693326C99.0692 0.697779 99.0692 0.70226 99.0692 0.70677C99.0692 0.711279 99.0692 0.715817 99.0692 0.720382C99.0692 0.724948 99.0692 0.729542 99.0692 0.734164C99.0692 0.738787 99.0692 0.743437 99.0692 0.748117C99.0692 0.752796 99.0692 0.757504 99.0692 0.762241C99.0692 0.766977 99.0692 0.771743 99.0692 0.776537C99.0692 0.781331 99.0692 0.786154 99.0692 0.791007C99.0692 0.795859 99.0692 0.80074 99.0692 0.805651C99.0692 0.810562 99.0692 0.815501 99.0692 0.820471C99.0692 0.82544 99.0692 0.830439 99.0692 0.835467C99.0692 0.840496 99.0692 0.845553 99.0692 0.850641C99.0692 0.855729 99.0692 0.860846 99.0692 0.865994C99.0692 0.871141 99.0692 0.876319 99.0692 0.881526C99.0692 0.886734 99.0692 0.891971 99.0692 0.897239C99.0692 0.902507 99.0692 0.907805 99.0692 0.913134C99.0692 0.918463 99.0692 0.923822 99.0692 0.929211C99.0692 0.934601 99.0692 0.940022 99.0692 0.945473C99.0692 0.950924 99.0692 0.956406 99.0692 0.961919C99.0692 0.967432 99.0692 0.972976 99.0692 0.978551C99.0692 0.984126 99.0692 0.989732 99.0692 0.99537C99.0692 1.00101 99.0692 1.00668 99.0692 1.01238C99.0692 1.01808 99.0692 1.02381 99.0692 1.02957C99.0692 1.03534 99.0692 1.04113 99.0692 1.04696C99.0692 1.05278 99.0692 1.05864 99.0692 1.06453C99.0692 1.07042 99.0692 1.07635 99.0692 1.0823C99.0692 1.08826 99.0692 1.09424 99.0692 1.10026C99.0692 1.10628 99.0692 1.11233 99.0692 1.11842C99.0692 1.1245 99.0692 1.13062 99.0692 1.13677C99.0692 1.14292 99.0692 1.1491 99.0692 1.15532C99.0692 1.16153 99.0692 1.16778 99.0692 1.17406C99.0692 1.18034 99.0692 1.18666 99.0692 1.193C99.0692 1.19935 99.0692 1.20573 99.0692 1.21214C99.0692 1.21856 99.0692 1.225 99.0692 1.23149C99.0692 1.23797 99.0692 1.24448 99.0692 1.25103C99.0692 1.25758 99.0692 1.26416 99.0692 1.27077C99.0692 1.27739 99.0692 1.28404 99.0692 1.29072C99.0692 1.29741 99.0692 1.30412 99.0692 1.31087C99.0692 1.31763 99.0692 1.32441 99.0692 1.33123C99.0692 1.33805 99.0692 1.34491 99.0692 1.3518C99.0692 1.35869 99.0692 1.36561 99.0692 1.37257C99.0692 1.37953 99.0692 1.38652 99.0692 1.39355C99.0692 1.40058 99.0692 1.40764 99.0692 1.41474C99.0692 1.42184 99.0692 1.42897 99.0692 1.43614C99.0692 1.44331 99.0692 1.45051 99.0692 1.45775C99.0692 1.46499 99.0692 1.47227 99.0692 1.47958C99.0692 1.48689 99.0692 1.49423 99.0692 1.50161C99.0692 1.509 99.0692 1.51641 99.0692 1.52387C99.0692 1.53132 99.0692 1.53881 99.0692 1.54633C99.0692 1.55386 99.0692 1.56142 99.0692 1.56902C99.0692 1.57662 99.0692 1.58425 99.0692 1.59192C99.0692 1.59959 99.0692 1.6073 99.0692 1.61504C99.0692 1.62279 99.0692 1.63057 99.0692 1.63839C99.0692 1.6462 99.0692 1.65406 99.0692 1.66195C99.0692 1.66984 99.0692 1.67777 99.0692 1.68573C99.0692 1.6937 99.0692 1.7017 99.0692 1.70974C99.0692 1.71778 99.0692 1.72585 99.0692 1.73397C99.0692 1.74208 99.0692 1.75023 99.0692 1.75842C99.0692 1.76661 99.0692 1.77484 99.0692 1.7831C99.0692 1.79137 99.0692 1.79967 99.0692 1.80801C99.0692 1.81635 99.0692 1.82473 99.0692 1.83315C99.0692 1.84157 99.0692 1.85002 99.0692 1.85851C99.0692 1.86701 99.0692 1.87554 99.0692 1.88411C99.0692 1.89268 99.0692 1.90129 99.0692 1.90994C99.0692 1.91858 99.0692 1.92727 99.0692 1.93599C99.0692 1.94472 99.0692 1.95348 99.0692 1.96229C99.0692 1.97109 99.0692 1.97993 99.0692 1.98881C99.0692 1.99769 99.0692 2.00661 99.0692 2.01557C99.0692 2.02453 99.0692 2.03353 99.0692 2.04257C99.0692 2.05161 99.0692 2.06069 99.0692 2.06981C99.0692 2.07892 99.0692 2.08808 99.0692 2.09728C99.0692 2.10648 99.0692 2.11571 99.0692 2.12499C99.0692 2.13427 99.0692 2.14358 99.0692 2.15294C99.0692 2.1623 99.0692 2.1717 99.0692 2.18114C99.0692 2.19057 99.0692 2.20005 99.0692 2.20957C99.0692 2.21909 99.0692 2.22865 99.0692 2.23825C99.0692 2.24785 99.0692 2.25749 99.0692 2.26718C99.0692 2.27686 99.0692 2.28658 99.0692 2.29634C99.0692 2.30611 99.0692 2.31591 99.0692 2.32576C99.0692 2.33561 99.0692 2.34549 99.0692 2.35542C99.0692 2.36535 99.0692 2.37532 99.0692 2.38534C99.0692 2.39535 99.0692 2.4054 99.0692 2.4155C99.0692 2.42559 99.0692 2.43573 99.0692 2.44591C99.0692 2.45609 99.0692 2.46631 99.0692 2.47657C99.0692 2.48684 99.0692 2.49714 99.0692 2.50749C99.0692 2.51784 99.0692 2.52823 99.0692 2.53866C99.0692 2.54909 99.0692 2.55957 99.0692 2.57009C99.0692 2.5806 99.0692 2.59116 99.0692 2.60177C99.0692 2.61237 99.0692 2.62301 99.0692 2.6337C99.0692 2.64439 99.0692 2.65512 99.0692 2.6659C99.0692 2.67667 99.0692 2.68749 99.0692 2.69835C99.0692 2.70921 99.0692 2.72012 99.0692 2.73107C99.0692 2.74201 99.0692 2.75301 99.0692 2.76404C99.0692 2.77508 99.0692 2.78616 99.0692 2.79728C99.0692 2.8084 99.0692 2.81957 99.0692 2.83078C99.0692 2.84199 99.0692 2.85324 99.0692 2.86454C99.0692 2.87584 99.0692 2.88718 99.0692 2.89857C99.0692 2.90996 99.0692 2.92139 99.0692 2.93286C99.0692 2.94434 99.0692 2.95586 99.0692 2.96743C99.0692 2.97899 99.0692 2.9906 99.0692 3.00226C99.0692 3.01391 99.0692 3.02561 99.0692 3.03735C99.0692 3.0491 99.0692 3.06089 99.0692 3.07272C99.0692 3.08456 99.0692 3.09644 99.0692 3.10836C99.0692 3.12029 99.0692 3.13226 99.0692 3.14428C99.0692 3.15629 99.0692 3.16835 99.0692 3.18046C99.0692 3.19257 99.0692 3.20472 99.0692 3.21692C99.0692 3.22912 99.0692 3.24137 99.0692 3.25366C99.0692 3.26595 99.0692 3.27829 99.0692 3.29067C99.0692 3.30305 99.0692 3.31548 99.0692 3.32796C99.0692 3.34043 99.0692 3.35296 99.0692 3.36553C99.0692 3.37809 99.0692 3.39071 99.0692 3.40337C99.0692 3.41603 99.0692 3.42874 99.0692 3.4415C99.0692 3.45425 99.0692 3.46706 99.0692 3.47991C99.0692 3.49276 99.0692 3.50565 99.0692 3.5186C99.0692 3.53154 99.0692 3.54453 99.0692 3.55757C99.0692 3.57061 99.0692 3.5837 99.0692 3.59683C99.0692 3.60997 99.0692 3.62315 99.0692 3.63638C99.0692 3.64961 99.0692 3.66288 99.0692 3.67621C99.0692 3.68953 99.0692 3.70291 99.0692 3.71633C99.0692 3.72975 99.0692 3.74322 99.0692 3.75673C99.0692 3.77025 99.0692 3.78382 99.0692 3.79743C99.0692 3.81104 99.0692 3.82471 99.0692 3.83842C99.0692 3.85213 99.0692 3.86589 99.0692 3.8797C99.0692 3.89351 99.0692 3.90736 99.0692 3.92127C99.0692 3.93518 99.0692 3.94913 99.0692 3.96314C99.0692 3.97714 99.0692 3.99119 99.0692 4.0053C99.0692 4.0194 99.0692 4.03355 99.0692 4.04775C99.0692 4.06196 99.0692 4.07621 99.0692 4.09051C99.0692 4.10481 99.0692 4.11916 99.0692 4.13356C99.0692 4.14796 99.0692 4.16241 99.0692 4.17691C99.0692 4.19141 99.0692 4.20596 99.0692 4.22056C99.0692 4.23516 99.0692 4.24981 99.0692 4.26451C99.0692 4.27921 99.0692 4.29396 99.0692 4.30877C99.0692 4.32357 99.0692 4.33842 99.0692 4.35332C99.0692 4.36823 99.0692 4.38318 99.0692 4.39818C99.0692 4.41319 99.0692 4.42824 99.0692 4.44335C99.0692 4.45846 99.0692 4.47361 99.0692 4.48882C99.0692 4.50403 99.0692 4.51929 99.0692 4.5346C99.0692 4.54991 99.0692 4.56527 99.0692 4.58069C99.0692 4.5961 99.0692 4.61157 99.0692 4.62708C99.0692 4.6426 99.0692 4.65817 99.0692 4.67379C99.0692 4.68941 99.0692 4.70508 99.0692 4.72081C99.0692 4.73653 99.0692 4.75231 99.0692 4.76814C99.0692 4.78397 99.0692 4.79985 99.0692 4.81578C99.0692 4.83171 99.0692 4.8477 99.0692 4.86374C99.0692 4.87978 99.0692 4.89587 99.0692 4.91201C99.0692 4.92816 99.0692 4.94435 99.0692 4.9606C99.0692 4.97685 99.0692 4.99315 99.0692 5.00951C99.0692 5.02586 99.0692 5.04227 99.0692 5.05873C99.0692 5.0752 99.0692 5.09171 99.0692 5.10828C99.0692 5.12485 99.0692 5.14147 99.0692 5.15815C99.0692 5.17482 99.0692 5.19155 99.0692 5.20833C99.0692 5.22512 99.0692 5.24195 99.0692 5.25884C99.0692 5.27573 99.0692 5.29268 99.0692 5.30968C99.0692 5.32667 99.0692 5.34373 99.0692 5.36083C99.0692 5.37794 99.0692 5.3951 99.0692 5.41232C99.0692 5.42953 99.0692 5.4468 99.0692 5.46413C99.0692 5.48145 99.0692 5.49883 99.0692 5.51627C99.0692 5.5337 99.0692 5.55119 99.0692 5.56873C99.0692 5.58628 99.0692 5.60388 99.0692 5.62153C99.0692 5.63918 99.0692 5.65689 99.0692 5.67466C99.0692 5.69242 99.0692 5.71024 99.0692 5.72812C99.0692 5.74599 99.0692 5.76392 99.0692 5.78191C99.0692 5.79989 99.0692 5.81794 99.0692 5.83603C99.0692 5.85413 99.0692 5.87229 99.0692 5.89049C99.0692 5.9087 99.0692 5.92697 99.0692 5.94529C99.0692 5.96361 99.0692 5.98199 99.0692 6.00043C99.0692 6.01886 99.0692 6.03735 99.0692 6.0559C99.0692 6.07444 99.0692 6.09305 99.0692 6.11171C99.0692 6.13037 99.0692 6.14909 99.0692 6.16786C99.0692 6.18663 99.0692 6.20546 99.0692 6.22435C99.0692 6.24324 99.0692 6.26218 99.0692 6.28119C99.0692 6.30019 99.0692 6.31925 99.0692 6.33836C99.0692 6.35748 99.0692 6.37665 99.0692 6.39588C99.0692 6.41512 99.0692 6.4344 99.0692 6.45375C99.0692 6.4731 99.0692 6.4925 99.0692 6.51196C99.0692 6.53143 99.0692 6.55095 99.0692 6.57052C99.0692 6.5901 99.0692 6.60974 99.0692 6.62943C99.0692 6.64913 99.0692 6.66888 99.0692 6.68869C99.0692 6.7085 99.0692 6.72837 99.0692 6.7483C99.0692 6.76823 99.0692 6.78821 99.0692 6.80826C99.0692 6.8283 99.0692 6.84841 99.0692 6.86857C99.0692 6.88873 99.0692 6.90895 99.0692 6.92923C99.0692 6.94952 99.0692 6.96985 99.0692 6.99025C99.0692 7.01065 99.0692 7.03111 99.0692 7.05163C99.0692 7.07215 99.0692 7.09272 99.0692 7.11336C99.0692 7.134 99.0692 7.15469 99.0692 7.17545C99.0692 7.19621 99.0692 7.21702 99.0692 7.2379C99.0692 7.25877 99.0692 7.27971 99.0692 7.30071C99.0692 7.3217 99.0692 7.34276 99.0692 7.36387C99.0692 7.38499 99.0692 7.40617 99.0692 7.4274C99.0692 7.44864 99.0692 7.46994 99.0692 7.4913C99.0692 7.51265 99.0692 7.53407 99.0692 7.55555C99.0692 7.57703 99.0692 7.59857 99.0692 7.62017C99.0692 7.64177 99.0692 7.66344 99.0692 7.68516C99.0692 7.70688 99.0692 7.72867 99.0692 7.75051C99.0692 7.77236 99.0692 7.79427 99.0692 7.81623C99.0692 7.8382 99.0692 7.86023 99.0692 7.88232C99.0692 7.90442 99.0692 7.92657 99.0692 7.94878C99.0692 7.971 99.0692 7.99328 99.0692 8.01561C99.0692 8.03795 99.0692 8.06035 99.0692 8.08282C99.0692 8.10528 99.0692 8.12781 99.0692 8.15039C99.0692 8.17298 99.0692 8.19563 99.0692 8.21834C99.0692 8.24105 99.0692 8.26383 99.0692 8.28667C99.0692 8.3095 99.0692 8.33241 99.0692 8.35537C99.0692 8.37833 99.0692 8.40136 99.0692 8.42445C99.0692 8.44753 99.0692 8.47069 99.0692 8.4939C99.0692 8.51712 99.0692 8.54039 99.0692 8.56374C99.0692 8.58708 99.0692 8.61048 99.0692 8.63395C99.0692 8.65742 99.0692 8.68095 99.0692 8.70455C99.0692 8.72814 99.0692 8.7518 99.0692 8.77553C99.0692 8.79925 99.0692 8.82304 99.0692 8.84689C99.0692 8.87074 99.0692 8.89466 99.0692 8.91864C99.0692 8.94261 99.0692 8.96666 99.0692 8.99077C99.0692 9.01487 99.0692 9.03905 99.0692 9.06328C99.0692 9.08752 99.0692 9.11182 99.0692 9.13619C99.0692 9.16056 99.0692 9.18499 99.0692 9.20948C99.0692 9.23398 99.0692 9.25854 99.0692 9.28317C99.0692 9.30779 99.0692 9.33248 99.0692 9.35724C99.0692 9.382 99.0692 9.40682 99.0692 9.4317C99.0692 9.45659 99.0692 9.48154 99.0692 9.50656C99.0692 9.53158 99.0692 9.55666 99.0692 9.58181C99.0692 9.60696 99.0692 9.63218 99.0692 9.65746C99.0692 9.68274 99.0692 9.70809 99.0692 9.7335C99.0692 9.75891 99.0692 9.78439 99.0692 9.80994C99.0692 9.83548 99.0692 9.86109 99.0692 9.88677C99.0692 9.91245 99.0692 9.93819 99.0692 9.96401C99.0692 9.98982 99.0692 10.0157 99.0692 10.0416C99.0692 10.0676 99.0692 10.0936 99.0692 10.1197C99.0692 10.1458 99.0692 10.1719 99.0692 10.1981C99.0692 10.2243 99.0692 10.2506 99.0692 10.2769C99.0692 10.3033 99.0692 10.3297 99.0692 10.3562C99.0692 10.3827 99.0692 10.4092 99.0692 10.4358C99.0692 10.4625 99.0692 10.4891 99.0692 10.5159C99.0692 10.5426 99.0692 10.5695 99.0692 10.5964C99.0692 10.6232 99.0692 10.6502 99.0692 10.6772C99.0692 10.7042 99.0692 10.7313 99.0692 10.7585C99.0692 10.7857 99.0692 10.8129 99.0692 10.8402C99.0692 10.8675 99.0692 10.8948 99.0692 10.9223C99.0692 10.9497 99.0692 10.9772 99.0692 11.0048C99.0692 11.0324 99.0692 11.06 99.0692 11.0877C99.0692 11.1154 99.0692 11.1432 99.0692 11.1711C99.0692 11.1989 99.0692 11.2268 99.0692 11.2548C99.0692 11.2828 99.0692 11.3108 99.0692 11.339C99.0692 11.3671 99.0692 11.3953 99.0692 11.4236C99.0692 11.4518 99.0692 11.4802 99.0692 11.5086C99.0692 11.537 99.0692 11.5654 99.0692 11.594C99.0692 11.6225 99.0692 11.6511 99.0692 11.6798C99.0692 11.7085 99.0692 11.7373 99.0692 11.7661C99.0692 11.7949 99.0692 11.8238 99.0692 11.8528C99.0692 11.8817 99.0692 11.9108 99.0692 11.9399C99.0692 11.969 99.0692 11.9982 99.0692 12.0274C99.0692 12.0567 99.0692 12.086 99.0692 12.1154C99.0692 12.1448 99.0692 12.1742 99.0692 12.2038C99.0692 12.2333 99.0692 12.2629 99.0692 12.2926C99.0692 12.3223 99.0692 12.352 99.0692 12.3818C99.0692 12.4116 99.0692 12.4415 99.0692 12.4715C99.0692 12.5015 99.0692 12.5315 99.0692 12.5616C99.0692 12.5917 99.0692 12.6219 99.0692 12.6521C99.0692 12.6824 99.0692 12.7127 99.0692 12.7431C99.0692 12.7735 99.0692 12.804 99.0692 12.8345C99.0692 12.865 99.0692 12.8957 99.0692 12.9263C99.0692 12.957 99.0692 12.9878 99.0692 13.0186C99.0692 13.0494 99.0692 13.0803 99.0692 13.1113C99.0692 13.1423 99.0692 13.1733 99.0692 13.2045C99.0692 13.2356 99.0692 13.2668 99.0692 13.298C99.0692 13.3293 99.0692 13.3607 99.0692 13.3921C99.0692 13.4235 99.0692 13.455 99.0692 13.4865C99.0692 13.5181 99.0692 13.5497 99.0692 13.5814C99.0692 13.6132 99.0692 13.6449 99.0692 13.6768C99.0692 13.7086 99.0692 13.7406 99.0692 13.7726C99.0692 13.8046 99.0692 13.8367 99.0692 13.8688C99.0692 13.901 99.0692 13.9332 99.0692 13.9655C99.0692 13.9978 99.0692 14.0302 99.0692 14.0626C99.0692 14.0951 99.0692 14.1276 99.0692 14.1602C99.0692 14.1928 99.0692 14.2255 99.0692 14.2582C99.0692 14.291 99.0692 14.3238 99.0692 14.3567C99.0692 14.3896 99.0692 14.4226 99.0692 14.4557C99.0692 14.4887 99.0692 14.5218 99.0692 14.555C99.0692 14.5882 99.0692 14.6215 99.0692 14.6549C99.0692 14.6882 99.0692 14.7217 99.0692 14.7552C99.0692 14.7887 99.0692 14.8222 99.0692 14.8559C99.0692 14.8896 99.0692 14.9233 99.0692 14.9571C99.0692 14.9909 99.0692 15.0248 99.0692 15.0588C99.0692 15.0927 99.0692 15.1268 99.0692 15.1609C99.0692 15.195 99.0692 15.2292 99.0692 15.2634C99.0692 15.2977 99.0692 15.3321 99.0692 15.3665C99.0692 15.4009 99.0692 15.4354 99.0692 15.47C99.0692 15.5046 99.0692 15.5392 99.0692 15.5739C99.0692 15.6087 99.0692 15.6435 99.0692 15.6784C99.0692 15.7132 99.0692 15.7482 99.0692 15.7832C99.0692 15.8183 99.0692 15.8534 99.0692 15.8886C99.0692 15.9238 99.0692 15.9591 99.0692 15.9944C99.0692 16.0298 99.0692 16.0652 99.0692 16.1007C99.0692 16.1362 99.0692 16.1718 99.0692 16.2075C99.0692 16.2431 99.0692 16.2789 99.0692 16.3147C99.0692 16.3505 99.0692 16.3864 99.0692 16.4224C99.0692 16.4584 99.0692 16.4944 99.0692 16.5306C99.0692 16.5667 99.0692 16.6029 99.0692 16.6392C99.0692 16.6755 99.0692 16.7119 99.0692 16.7483C99.0692 16.7848 99.0692 16.8213 99.0692 16.8579C99.0692 16.8945 99.0692 16.9312 99.0692 16.968C99.0692 17.0047 99.0692 17.0416 99.0692 17.0785C99.0692 17.1154 99.0692 17.1524 99.0692 17.1895C99.0692 17.2266 99.0692 17.2638 99.0692 17.301C99.0692 17.3383 99.0692 17.3756 99.0692 17.413C99.0692 17.4504 99.0692 17.4879 99.0692 17.5255C99.0692 17.563 99.0692 17.6007 99.0692 17.6384C99.0692 17.6761 99.0692 17.7139 99.0692 17.7518C99.0692 17.7897 99.0692 17.8277 99.0692 17.8657C99.0692 17.9038 99.0692 17.9419 99.0692 17.9801C99.0692 18.0183 99.0692 18.0566 99.0692 18.095C99.0692 18.1334 99.0692 18.1718 99.0692 18.2104C99.0692 18.2489 99.0692 18.2875 99.0692 18.3262C99.0692 18.3649 99.0692 18.4037 99.0692 18.4426C99.0692 18.4814 99.0692 18.5204 99.0692 18.5594C99.0692 18.5984 99.0692 18.6375 99.0692 18.6767C99.0692 18.7159 99.0692 18.7552 99.0692 18.7945C99.0692 18.8339 99.0692 18.8733 99.0692 18.9128C99.0692 18.9524 99.0692 18.992 99.0692 19.0316C99.0692 19.0713 99.0692 19.1111 99.0692 19.1509C99.0692 19.1908 99.0692 19.2307 99.0692 19.2707C99.0692 19.3108 99.0692 19.3508 99.0692 19.391C99.0692 19.4312 99.0692 19.4715 99.0692 19.5118C99.0692 19.5522 99.0692 19.5926 99.0692 19.6331C99.0692 19.6736 99.0692 19.7142 99.0692 19.7549C99.0692 19.7956 99.0692 19.8363 99.0692 19.8772C99.0692 19.918 99.0692 19.959 99.0692 20H100.069Z" fill="#FFA726"/>
</svg>
