<svg width="93" height="184" viewBox="0 0 93 184" fill="none" xmlns="http://www.w3.org/2000/svg">
<path d="M0.666667 7.38193C0.666667 4.4364 3.05448 2.0486 6 2.0486C8.94552 2.0486 11.3333 4.4364 11.3333 7.38193C11.3333 10.3275 8.94552 12.7153 6 12.7153C3.05448 12.7153 0.666667 10.3275 0.666667 7.38193ZM6 7.38193C5.86273 6.39139 5.86309 6.39134 5.86378 6.39125C5.86443 6.39116 5.86543 6.39102 5.86673 6.39084C5.86934 6.39047 5.87321 6.38994 5.87834 6.38924C5.8886 6.38782 5.90389 6.38571 5.92413 6.38292C5.9646 6.37733 6.02487 6.36905 6.10431 6.35817C6.26318 6.33641 6.4987 6.30428 6.80583 6.26273C7.42008 6.17963 8.32075 6.05885 9.46738 5.90805C11.7606 5.60646 15.0378 5.18469 18.9754 4.70381C26.8495 3.74219 37.3688 2.54367 47.9418 1.59723C58.5077 0.651413 69.1553 -0.0452576 77.2753 0.00228882C81.3276 0.0260162 84.7997 0.234909 87.3317 0.70636C88.5921 0.94104 89.6819 1.25162 90.5082 1.6732C91.3112 2.08292 92.0678 2.70505 92.2592 3.65619L91.2788 3.85342L90.2985 4.05066C90.287 3.99365 90.1999 3.76123 89.5992 3.4547C89.0218 3.16006 88.1479 2.89273 86.9656 2.67256C84.612 2.23433 81.2823 2.02579 77.2636 2.00226C69.2417 1.95529 58.671 2.64481 48.1201 3.58926C37.5762 4.5331 27.08 5.72891 19.2179 6.68906C15.2873 7.16908 12.0162 7.59006 9.72817 7.89098C8.58415 8.04144 7.68593 8.16188 7.07396 8.24467C6.76797 8.28606 6.53355 8.31804 6.37575 8.33966C6.29685 8.35046 6.23711 8.35869 6.19715 8.3642C6.17717 8.36694 6.16214 8.36902 6.15213 8.37041C6.14713 8.37109 6.14339 8.37161 6.14091 8.37196C6.13967 8.37213 6.13876 8.37225 6.13814 8.37234C6.13755 8.37242 6.13727 8.37247 6 7.38193ZM91.2788 3.85342L92.2592 3.65619C92.3788 4.25085 92.469 5.4792 92.5452 7.16034C92.623 8.87593 92.689 11.1475 92.7445 13.8894C92.8556 19.3746 92.9253 26.7643 92.9634 35.3994C93.0394 52.6708 92.9887 74.9407 92.8873 96.9557C92.7859 118.971 92.6338 140.735 92.507 156.994C92.4436 165.124 92.3865 171.877 92.3453 176.599C92.3247 178.96 92.3081 180.812 92.2966 182.075C92.2909 182.706 92.2864 183.189 92.2834 183.515C92.2819 183.678 92.2807 183.802 92.28 183.885C92.2796 183.926 92.2793 183.957 92.2791 183.978C92.279 183.988 92.2789 183.996 92.2789 184.002C92.2788 184.004 92.2788 184.006 92.2788 184.007C92.2788 184.009 92.2788 184.009 91.2788 184C90.2789 183.991 90.2789 183.99 90.2789 183.989C90.2789 183.987 90.2789 183.985 90.2789 183.983C90.279 183.978 90.2791 183.97 90.2792 183.959C90.2794 183.938 90.2796 183.907 90.28 183.866C90.2808 183.783 90.282 183.66 90.2835 183.497C90.2865 183.171 90.2909 182.687 90.2967 182.056C90.3082 180.794 90.3248 178.942 90.3454 176.581C90.3866 171.861 90.4437 165.107 90.507 156.978C90.6338 140.72 90.7859 118.959 90.8873 96.9465C90.9887 74.9331 91.0394 52.6704 90.9634 35.4082C90.9254 26.7765 90.8557 19.3992 90.7449 13.9299C90.6895 11.1947 90.6239 8.94215 90.5473 7.25095C90.469 5.5253 90.3817 4.46413 90.2985 4.05066L91.2788 3.85342Z" fill="#FFA726"/>
</svg>
