<svg width="246" height="23" viewBox="0 0 246 23" fill="none" xmlns="http://www.w3.org/2000/svg">
<path d="M0.666667 15C0.666667 17.9455 3.05448 20.3333 6 20.3333C8.94552 20.3333 11.3333 17.9455 11.3333 15C11.3333 12.0545 8.94552 9.66667 6 9.66667C3.05448 9.66667 0.666667 12.0545 0.666667 15ZM6 15C5.95049 15.9988 5.95139 15.9988 5.95318 15.9989C5.95495 15.999 5.95762 15.9991 5.96115 15.9993C5.96823 15.9997 5.97882 16.0002 5.99289 16.0009C6.02104 16.0023 6.06313 16.0043 6.11894 16.0071C6.23056 16.0126 6.39708 16.0208 6.61673 16.0315C7.05602 16.0531 7.70787 16.0849 8.55824 16.126C10.259 16.2083 12.7538 16.328 15.9306 16.4774C22.284 16.7763 31.3652 17.1943 42.2767 17.6709C64.0992 18.6241 93.244 19.8118 122.531 20.7495C151.815 21.6871 181.25 22.375 203.651 22.3281C214.848 22.3047 224.305 22.0976 231.112 21.6443C234.512 21.4179 237.279 21.1283 239.282 20.7628C240.28 20.5807 241.124 20.3734 241.775 20.1308C242.101 20.0095 242.405 19.8692 242.665 19.7018C242.918 19.5394 243.191 19.3118 243.372 18.9903L242.5 18.5L241.628 18.0097C241.669 17.9382 241.69 17.951 241.583 18.0199C241.484 18.0837 241.322 18.1653 241.076 18.2568C240.585 18.44 239.871 18.6222 238.923 18.7953C237.033 19.1403 234.354 19.4239 230.979 19.6487C224.238 20.0977 214.832 20.3047 203.646 20.3281C181.281 20.375 151.873 19.6879 122.594 18.7505C93.3185 17.8132 64.1821 16.6259 42.364 15.6728C31.4551 15.1963 22.3761 14.7784 16.0245 14.4796C12.8487 14.3302 10.3548 14.2106 8.6549 14.1284C7.80495 14.0872 7.15351 14.0554 6.7146 14.0339C6.49515 14.0232 6.32883 14.015 6.2174 14.0095C6.16168 14.0068 6.11969 14.0047 6.09163 14.0033C6.0776 14.0026 6.06706 14.0021 6.06003 14.0017C6.05652 14.0016 6.05389 14.0014 6.05213 14.0014C6.05038 14.0013 6.04951 14.0012 6 15ZM242.5 18.5L243.372 18.9903C245.778 14.7113 245.755 9.94947 245.175 6.34132C244.883 4.52698 244.446 2.97406 244.082 1.87337C243.9 1.32227 243.735 0.88251 243.615 0.577717C243.554 0.425267 243.505 0.306422 243.47 0.22413C243.453 0.182979 243.439 0.150952 243.429 0.128418C243.424 0.11715 243.42 0.108254 243.417 0.101775C243.416 0.0985361 243.415 0.095901 243.414 0.0938757C243.413 0.0928631 243.413 0.092003 243.413 0.091296C243.413 0.0909427 243.412 0.0905271 243.412 0.0903505C243.412 0.0899739 243.412 0.0896353 242.5 0.5C241.588 0.910365 241.588 0.910102 241.588 0.909878C241.588 0.909854 241.588 0.909667 241.588 0.909618C241.588 0.90952 241.588 0.909573 241.588 0.909775C241.588 0.91018 241.588 0.911184 241.589 0.912781C241.591 0.915977 241.593 0.921546 241.596 0.929443C241.603 0.945239 241.614 0.970341 241.629 1.00439C241.658 1.07248 241.701 1.1763 241.755 1.31291C241.863 1.58624 242.014 1.99023 242.183 2.50163C242.522 3.52594 242.929 4.97302 243.2 6.65868C243.745 10.0505 243.722 14.2887 241.628 18.0097L242.5 18.5Z" fill="#FFA726"/>
</svg>
