<svg width="98" height="174" viewBox="0 0 98 174" fill="none" xmlns="http://www.w3.org/2000/svg">
<path d="M97.1045 5.62897C97.0574 2.68384 94.6317 0.334472 91.6866 0.38153C88.7415 0.428589 86.3921 2.85425 86.4392 5.79939C86.4862 8.74454 88.9119 11.0939 91.857 11.0468C94.8022 10.9998 97.1515 8.57412 97.1045 5.62897ZM91.7718 5.71418C91.8758 4.71961 91.8755 4.71957 91.8747 4.7195C91.8741 4.71942 91.873 4.71932 91.8716 4.71917C91.8689 4.71888 91.8648 4.71846 91.8594 4.71789C91.8485 4.71676 91.8324 4.71508 91.811 4.71286C91.7682 4.7084 91.7044 4.7018 91.6204 4.69312C91.4524 4.67578 91.2032 4.65019 90.8782 4.61712C90.2283 4.55101 89.2752 4.45506 88.0619 4.3356C85.6354 4.09669 82.1676 3.76376 78.0014 3.38759C69.6699 2.6353 58.5416 1.70962 47.3609 1.01694C36.1862 0.324629 24.9347 -0.136557 16.3663 0.0440737C12.0891 0.134256 8.43705 0.384925 5.78504 0.858873C4.46515 1.09474 3.3346 1.39565 2.48399 1.79027C1.6844 2.16123 0.855446 2.74433 0.651727 3.69586L1.62956 3.90522L2.6074 4.11457C2.60313 4.13454 2.65292 3.91666 3.3257 3.60452C3.94746 3.31607 4.88288 3.05177 6.13689 2.82767C8.63267 2.38166 12.1601 2.13321 16.4085 2.04364C24.8914 1.86479 36.0758 2.32163 47.2372 3.01312C58.3925 3.70423 69.5006 4.62814 77.8215 5.37948C81.9815 5.7551 85.4439 6.08751 87.866 6.32597C89.077 6.44521 90.0279 6.54094 90.6758 6.60686C90.9998 6.63981 91.248 6.66531 91.4151 6.68256C91.4987 6.69119 91.5619 6.69774 91.6043 6.70215C91.6254 6.70434 91.6414 6.706 91.652 6.70711C91.6573 6.70767 91.6613 6.70808 91.6639 6.70835C91.6652 6.70849 91.6662 6.70859 91.6669 6.70866C91.6675 6.70872 91.6678 6.70876 91.7718 5.71418ZM1.62956 3.90522L0.651727 3.69586C0.530806 4.26063 0.44587 5.42326 0.377431 6.99615C0.307329 8.6073 0.251919 10.743 0.209323 13.322C0.124122 18.4813 0.089855 25.4387 0.0936107 33.5719C0.101127 49.8394 0.260765 70.8281 0.47023 91.5809C0.679705 112.334 0.939043 132.855 1.146 148.186C1.24949 155.852 1.33988 162.221 1.4044 166.674C1.43666 168.9 1.46246 170.647 1.48018 171.838C1.48905 172.433 1.4959 172.889 1.50053 173.196C1.50285 173.35 1.50461 173.466 1.50579 173.545C1.50638 173.584 1.50683 173.613 1.50713 173.633C1.50728 173.643 1.50739 173.65 1.50746 173.655C1.5075 173.657 1.50753 173.659 1.50755 173.66C1.50757 173.662 1.50758 173.662 2.50746 173.647C3.50734 173.632 3.50733 173.631 3.50731 173.63C3.5073 173.629 3.50727 173.627 3.50723 173.624C3.50716 173.619 3.50704 173.612 3.5069 173.602C3.5066 173.583 3.50615 173.553 3.50557 173.514C3.50438 173.436 3.50262 173.32 3.5003 173.166C3.49567 172.859 3.48882 172.403 3.47996 171.808C3.46224 170.617 3.43645 168.871 3.40419 166.645C3.33968 162.193 3.2493 155.825 3.14583 148.159C2.93888 132.829 2.67957 112.311 2.47013 91.5607C2.26068 70.8096 2.10112 49.8286 2.09361 33.5709C2.08986 25.4414 2.12413 18.4973 2.20905 13.355C2.25153 10.7831 2.30659 8.66798 2.37554 7.08308C2.44616 5.45995 2.52888 4.48135 2.6074 4.11457L1.62956 3.90522Z" fill="#FFA726"/>
</svg>
