<svg width="100" height="96" viewBox="0 0 100 96" fill="none" xmlns="http://www.w3.org/2000/svg">
<path d="M99.7642 90.245C99.7171 93.1902 97.2915 95.5395 94.3463 95.4925C91.4012 95.4454 89.0518 93.0197 89.0989 90.0746C89.1459 87.1295 91.5716 84.7801 94.5167 84.8271C97.4619 84.8742 99.8112 87.2999 99.7642 90.245ZM94.4315 90.1598C94.4781 91.1587 94.4777 91.1587 94.477 91.1588C94.4763 91.1588 94.4752 91.1589 94.4738 91.1589C94.4711 91.159 94.4669 91.1592 94.4614 91.1595C94.4504 91.16 94.434 91.1608 94.4122 91.1618C94.3687 91.1638 94.3038 91.1668 94.2181 91.1707C94.0469 91.1786 93.7929 91.1901 93.4616 91.2051C92.7991 91.235 91.8273 91.2783 90.59 91.332C88.1153 91.4394 84.5786 91.5883 80.3293 91.7548C71.8311 92.0875 60.4811 92.4901 49.077 92.7689C37.676 93.0476 26.2083 93.203 17.4798 93.0404C13.1194 92.9592 9.41966 92.7983 6.74672 92.5304C5.41531 92.397 4.3028 92.2336 3.47919 92.0298C3.07053 91.9287 2.69153 91.8078 2.3798 91.6549C2.11083 91.523 1.68816 91.2715 1.48788 90.8017L2.40777 90.4095L3.32766 90.0174C3.23286 89.795 3.08882 89.775 3.26068 89.8593C3.38979 89.9227 3.61384 90.0029 3.95953 90.0884C4.64462 90.2579 5.64596 90.41 6.9462 90.5404C9.53654 90.8 13.1712 90.9598 17.5171 91.0408C26.2012 91.2025 37.6341 91.048 49.0281 90.7695C60.4189 90.491 71.7584 90.0889 80.251 89.7563C84.4971 89.59 88.031 89.4411 90.5032 89.3338C91.7393 89.2802 92.71 89.2369 93.3715 89.2071C93.7023 89.1922 93.9558 89.1806 94.1265 89.1728C94.2119 89.1689 94.2766 89.1659 94.3199 89.1639C94.3415 89.1629 94.3578 89.1621 94.3687 89.1616C94.3741 89.1614 94.3782 89.1612 94.381 89.1611C94.3823 89.161 94.3833 89.161 94.384 89.1609C94.3847 89.1609 94.385 89.1609 94.4315 90.1598ZM2.40777 90.4095L1.48788 90.8017C1.38561 90.5618 1.32071 90.258 1.27203 89.9702C1.21957 89.66 1.17252 89.2813 1.12958 88.846C1.04356 87.9743 0.969523 86.8288 0.905541 85.4578C0.777458 82.7134 0.687691 79.0198 0.627598 74.7107C0.507382 66.09 0.505523 54.9722 0.556375 43.9837C0.607232 32.994 0.710842 22.1286 0.801726 14.011C0.847169 9.95205 0.889437 6.5799 0.920338 4.22239C0.935792 3.04364 0.948407 2.11854 0.957161 1.48807C0.961534 1.17284 0.964943 0.931267 0.967262 0.768476C0.968418 0.68708 0.969304 0.625379 0.969897 0.584015C0.970197 0.563332 0.970423 0.547734 0.970574 0.537299C0.97065 0.532082 0.970705 0.528156 0.97074 0.525531C0.970761 0.524218 0.970776 0.523227 0.970787 0.52257C0.970798 0.521906 0.970803 0.521568 1.9707 0.536123C2.97059 0.550677 2.97059 0.550995 2.97058 0.551639C2.97057 0.55229 2.97055 0.553261 2.97053 0.55456C2.9705 0.557159 2.97043 0.561058 2.97036 0.566248C2.97022 0.576629 2.96999 0.592174 2.96969 0.612801C2.96909 0.654057 2.96822 0.715647 2.96706 0.79693C2.96475 0.959497 2.96134 1.20084 2.95696 1.51583C2.94822 2.14582 2.93561 3.0704 2.92017 4.24861C2.88928 6.60503 2.84703 9.9759 2.8016 14.0333C2.71074 22.1484 2.60718 33.0091 2.55635 43.9929C2.50552 54.978 2.50745 66.0811 2.62741 74.6828C2.6874 78.9849 2.77681 82.6529 2.90336 85.3646C2.9667 86.7217 3.03884 87.828 3.11991 88.6497C3.16052 89.0611 3.20224 89.3896 3.24403 89.6367C3.26489 89.76 3.28443 89.8551 3.30174 89.9253C3.32025 90.0003 3.33081 90.0248 3.32766 90.0174L2.40777 90.4095Z" fill="#FFA726"/>
</svg>
