<svg width="73" height="24" viewBox="0 0 73 24" fill="none" xmlns="http://www.w3.org/2000/svg">
<path d="M30.9587 13.8398H0.513184V23.9824H30.9587V13.8398Z" fill="#84B740"/>
<path d="M30.9587 0H0.513184V10.1515H30.9587V0Z" fill="#259BD6"/>
<path d="M61.4043 21.9211L61.2687 21.9483C60.7986 22.0387 60.6269 22.0748 60.2833 22.0748C59.4878 22.0748 58.5476 21.6681 58.5476 19.7517C58.5476 18.7663 58.7103 17.4556 60.1928 17.4556H60.2019C60.4549 17.4736 60.7442 17.5008 61.2866 17.6635L61.4042 17.6996L61.4043 21.9211ZM61.6484 12.3662L61.4043 12.4115V15.955L61.1874 15.8916L61.1241 15.8736C60.88 15.8013 60.3196 15.6386 59.7772 15.6386C56.8123 15.6386 56.1885 17.8805 56.1885 19.7606C56.1885 22.337 57.6348 23.8195 60.1569 23.8195C61.2236 23.8195 62.01 23.7111 62.8056 23.4489C63.5378 23.214 63.7999 22.8794 63.7999 22.1652V11.9956C63.0948 12.1221 62.3625 12.2486 61.6484 12.3662Z" fill="#27292D"/>
<path d="M70.2181 21.9844L70.0916 22.0205L69.6396 22.1381C69.2148 22.2465 68.8351 22.3099 68.5457 22.3099C67.8497 22.3099 67.4338 21.9663 67.4338 21.3789C67.4338 20.9991 67.6056 20.3573 68.7446 20.3573H70.2179V21.9844H70.2181ZM69.1785 15.5933C68.2655 15.5933 67.3254 15.7559 66.1593 16.1175L65.3999 16.3436L65.653 18.061L66.3944 17.8169C67.1718 17.5637 68.139 17.4011 68.8623 17.4011C69.1878 17.4011 70.1821 17.4011 70.1821 18.4769V18.9469H68.7991C66.277 18.9469 65.1108 19.7514 65.1108 21.478C65.1108 22.9514 66.1866 23.8373 67.9944 23.8373C68.5549 23.8373 69.3323 23.7289 70.0012 23.5661L70.0374 23.5569L70.0735 23.5661L70.2995 23.6022C71.0045 23.7287 71.7367 23.8554 72.4509 23.9909V18.35C72.4509 16.5243 71.3481 15.5933 69.1785 15.5933Z" fill="#27292D"/>
<path d="M52.6539 21.9844L52.5274 22.0205L52.0754 22.1381C51.6506 22.2465 51.2798 22.3099 50.9815 22.3099C50.2855 22.3099 49.8696 21.9663 49.8696 21.3789C49.8696 20.9991 50.0414 20.3573 51.1714 20.3573H52.6448V21.9844H52.6539ZM51.6234 15.5933C50.7013 15.5933 49.7703 15.7559 48.6042 16.1175L47.8448 16.3436L48.0978 18.061L48.8391 17.8169C49.6166 17.5637 50.5838 17.4011 51.307 17.4011C51.6325 17.4011 52.6269 17.4011 52.6269 18.4769V18.9469H51.2438C48.7217 18.9469 47.5466 19.7514 47.5466 21.478C47.5466 22.9514 48.6224 23.8373 50.4393 23.8373C50.9998 23.8373 51.7772 23.7289 52.4461 23.5661L52.4823 23.5569L52.5184 23.5661L52.7353 23.6022C53.4494 23.7287 54.1725 23.8554 54.8867 24V18.3591C54.8958 16.5153 53.793 15.5933 51.6234 15.5933Z" fill="#27292D"/>
<path d="M43.1351 15.6117C41.9871 15.6117 41.038 15.9914 40.6855 16.154L40.5951 16.1993L40.5137 16.1359C40.0256 15.7834 39.3114 15.6025 38.3171 15.6025C37.4403 15.6025 36.6177 15.7291 35.7227 15.9912C34.9543 16.2262 34.656 16.5969 34.656 17.293V23.7383H37.0606V17.7811L37.1781 17.745C37.6663 17.5823 37.9556 17.5551 38.2358 17.5551C38.9319 17.5551 39.2844 17.9257 39.2844 18.649V23.7473H41.6528V18.5495C41.6528 18.2421 41.5895 18.0613 41.5805 18.0252L41.4991 17.8715L41.6618 17.7992C42.0234 17.6365 42.4212 17.5551 42.8369 17.5551C43.3159 17.5551 43.8854 17.745 43.8854 18.649V23.7473H46.2447V18.414C46.2447 16.5246 45.2323 15.6117 43.1351 15.6117Z" fill="#27292D"/>
<path d="M68.4461 6.61697C68.0936 6.61697 67.506 6.58082 67.045 6.49046L66.9094 6.46327V2.98292C66.9094 2.69359 66.8552 2.51285 66.8461 2.48566L66.7738 2.34107L66.9275 2.27774C66.9636 2.25966 66.9998 2.25055 67.045 2.23247L67.0722 2.2144C67.1265 2.19633 67.1807 2.17825 67.2349 2.16018C67.2621 2.15106 67.2802 2.14211 67.2982 2.14211C67.8316 1.99752 68.3198 2.01559 68.5367 1.99752H68.5458C70.0192 1.99752 70.1909 3.30824 70.1909 4.29365C70.1818 6.21024 69.2326 6.61697 68.4461 6.61697ZM68.4372 0C68.4191 0 68.3919 0 68.3738 0C66.9908 0 65.5715 0.379702 65.0653 1.12087C64.794 1.4825 64.6405 1.9345 64.6314 2.46775V6.05653C64.6314 6.36394 64.568 6.48134 64.5591 6.50853L64.4777 6.66223H60.1116V4.16729H60.1025C60.0482 1.53672 58.4935 0.0903677 56.2426 0.0903677H55.9805H54.046C53.9556 0.732216 53.8833 1.18421 53.7929 1.82606H55.9805C57.1285 1.82606 57.7342 2.80235 57.7342 4.30293V6.81594L57.5805 6.73453C57.5533 6.72541 57.3636 6.66223 57.0652 6.66223H53.2866C53.2143 7.14126 53.1239 7.76504 53.0244 8.38881H64.6403C65.0381 8.3074 65.4991 8.2351 65.8968 8.17193C66.4844 8.46126 67.5781 8.61481 68.3284 8.61481C70.8505 8.61481 72.4867 6.92438 72.4867 4.321C72.4778 1.74465 70.896 0.0542204 68.4372 0Z" fill="#27292D"/>
<path d="M48.0707 9.44663H48.1792C50.7013 9.44663 51.8764 8.61493 51.8764 6.56304C51.8764 5.08949 50.8006 3.91439 48.9928 3.91439H46.6696C45.9736 3.91439 45.5577 3.51662 45.5577 2.84774C45.5577 2.39574 45.7295 1.8353 46.8685 1.8353H51.9487C52.0571 1.17538 52.1113 0.759531 52.2108 0.0996094H46.9316C44.4728 0.0996094 43.2344 1.13012 43.2344 2.84774C43.2344 4.54712 44.3102 5.43304 46.118 5.43304H48.4412C49.1372 5.43304 49.5531 5.98453 49.5531 6.56304C49.5531 6.94274 49.3813 7.72918 48.2513 7.72918H47.8626L40.423 7.7111H39.067C37.9189 7.7111 37.1144 7.0603 37.1144 5.5506V4.51098C37.1144 2.93811 37.7382 1.96182 39.067 1.96182H41.2726C41.3721 1.29294 41.4352 0.867973 41.5258 0.235242H38.7777H38.5155C36.2647 0.235242 34.7099 1.74494 34.6556 4.37535V4.47483V5.5506C34.7099 8.18117 36.2647 9.43768 38.5155 9.43768H38.7777H40.7121L44.7438 9.44679H47.1483L48.0707 9.44663Z" fill="#27292D"/>
</svg>
