<svg width="32" height="24" viewBox="0 0 32 24" fill="none" xmlns="http://www.w3.org/2000/svg">
<g clip-path="url(#clip0_2_609)">
<path d="M6.14881 23.8807V22.2922C6.14881 21.6833 5.77665 21.2861 5.13866 21.2861C4.81966 21.2861 4.47408 21.392 4.23483 21.7362C4.04875 21.445 3.78292 21.2861 3.38417 21.2861C3.11834 21.2861 2.85251 21.3655 2.63985 21.6568V21.3391H2.0816V23.8807H2.63985V22.4775C2.63985 22.0274 2.8791 21.8156 3.25126 21.8156C3.62342 21.8156 3.8095 22.0539 3.8095 22.4775V23.8807H4.36775V22.4775C4.36775 22.0274 4.63358 21.8156 4.97916 21.8156C5.35132 21.8156 5.5374 22.0539 5.5374 22.4775V23.8807H6.14881ZM14.4162 21.3391H13.5123V20.5713H12.9541V21.3391H12.449V21.8421H12.9541V23.007C12.9541 23.5895 13.1933 23.9337 13.8313 23.9337C14.0706 23.9337 14.3364 23.8542 14.5225 23.7483L14.363 23.2718C14.2035 23.3777 14.0174 23.4041 13.8845 23.4041C13.6187 23.4041 13.5123 23.2453 13.5123 22.9805V21.8421H14.4162V21.3391ZM19.1479 21.2861C18.8289 21.2861 18.6163 21.445 18.4834 21.6568V21.3391H17.9251V23.8807H18.4834V22.451C18.4834 22.0274 18.6694 21.7892 19.015 21.7892C19.1214 21.7892 19.2543 21.8156 19.3606 21.8421L19.5201 21.3126C19.4138 21.2861 19.2543 21.2861 19.1479 21.2861ZM11.9971 21.5509C11.7313 21.3655 11.3591 21.2861 10.9604 21.2861C10.3224 21.2861 9.89703 21.6038 9.89703 22.1069C9.89703 22.5305 10.216 22.7687 10.7743 22.8482L11.0401 22.8746C11.3325 22.9276 11.492 23.007 11.492 23.1394C11.492 23.3247 11.2793 23.4571 10.9072 23.4571C10.535 23.4571 10.2426 23.3247 10.0565 23.1923L9.7907 23.616C10.0831 23.8278 10.4819 23.9337 10.8806 23.9337C11.6249 23.9337 12.0503 23.5895 12.0503 23.1129C12.0503 22.6628 11.7047 22.4246 11.173 22.3451L10.9072 22.3187C10.6679 22.2922 10.4819 22.2392 10.4819 22.0804C10.4819 21.8951 10.6679 21.7892 10.9604 21.7892C11.2793 21.7892 11.5983 21.9215 11.7578 22.001L11.9971 21.5509ZM26.8304 21.2861C26.5114 21.2861 26.2988 21.445 26.1659 21.6568V21.3391H25.6076V23.8807H26.1659V22.451C26.1659 22.0274 26.3519 21.7892 26.6975 21.7892C26.8039 21.7892 26.9368 21.8156 27.0431 21.8421L27.2026 21.3126C27.0963 21.2861 26.9368 21.2861 26.8304 21.2861ZM19.7062 22.6099C19.7062 23.3777 20.2378 23.9337 21.0619 23.9337C21.4341 23.9337 21.6999 23.8542 21.9657 23.6424L21.6999 23.1923C21.4872 23.3512 21.2746 23.4306 21.0353 23.4306C20.5834 23.4306 20.2644 23.1129 20.2644 22.6099C20.2644 22.1333 20.5834 21.8156 21.0353 21.7892C21.2746 21.7892 21.4872 21.8686 21.6999 22.0274L21.9657 21.5773C21.6999 21.3655 21.4341 21.2861 21.0619 21.2861C20.2378 21.2861 19.7062 21.8421 19.7062 22.6099ZM24.8633 22.6099V21.3391H24.3051V21.6568C24.119 21.4185 23.8531 21.2861 23.5076 21.2861C22.7898 21.2861 22.2316 21.8421 22.2316 22.6099C22.2316 23.3777 22.7898 23.9337 23.5076 23.9337C23.8797 23.9337 24.1456 23.8013 24.3051 23.563V23.8807H24.8633V22.6099ZM22.8164 22.6099C22.8164 22.1598 23.1088 21.7892 23.5873 21.7892C24.0392 21.7892 24.3582 22.1333 24.3582 22.6099C24.3582 23.06 24.0392 23.4306 23.5873 23.4306C23.1088 23.4041 22.8164 23.06 22.8164 22.6099ZM16.1441 21.2861C15.3997 21.2861 14.8681 21.8156 14.8681 22.6099C14.8681 23.4041 15.3997 23.9337 16.1706 23.9337C16.5428 23.9337 16.915 23.8278 17.2074 23.5895L16.9415 23.1923C16.7289 23.3512 16.463 23.4571 16.1972 23.4571C15.8516 23.4571 15.5061 23.2982 15.4263 22.8482H17.3137V22.6364C17.3403 21.8156 16.8618 21.2861 16.1441 21.2861ZM16.1441 21.7627C16.4896 21.7627 16.7289 21.9745 16.782 22.3716H15.4529C15.5061 22.0274 15.7453 21.7627 16.1441 21.7627ZM29.9938 22.6099V20.333H29.4356V21.6568C29.2495 21.4185 28.9837 21.2861 28.6381 21.2861C27.9204 21.2861 27.3621 21.8421 27.3621 22.6099C27.3621 23.3777 27.9204 23.9337 28.6381 23.9337C29.0103 23.9337 29.2761 23.8013 29.4356 23.563V23.8807H29.9938V22.6099ZM27.9469 22.6099C27.9469 22.1598 28.2393 21.7892 28.7178 21.7892C29.1698 21.7892 29.4888 22.1333 29.4888 22.6099C29.4888 23.06 29.1698 23.4306 28.7178 23.4306C28.2393 23.4041 27.9469 23.06 27.9469 22.6099ZM9.28562 22.6099V21.3391H8.72737V21.6568C8.54129 21.4185 8.27546 21.2861 7.92988 21.2861C7.21214 21.2861 6.65389 21.8421 6.65389 22.6099C6.65389 23.3777 7.21214 23.9337 7.92988 23.9337C8.30204 23.9337 8.56787 23.8013 8.72737 23.563V23.8807H9.28562V22.6099ZM7.21214 22.6099C7.21214 22.1598 7.50455 21.7892 7.98305 21.7892C8.43496 21.7892 8.75396 22.1333 8.75396 22.6099C8.75396 23.06 8.43496 23.4306 7.98305 23.4306C7.50455 23.4041 7.21214 23.06 7.21214 22.6099Z" fill="black"/>
<path d="M20.1847 2.03857H11.811V17.0236H20.1847V2.03857Z" fill="#FF5F00"/>
<path d="M12.3427 9.53113C12.3427 6.48646 13.7781 3.78597 15.9845 2.0386C14.363 0.767785 12.3161 0 10.0831 0C4.79306 0 0.513184 4.26253 0.513184 9.53113C0.513184 14.7997 4.79306 19.0622 10.0831 19.0622C12.3161 19.0622 14.363 18.2945 15.9845 17.0236C13.7781 15.3028 12.3427 12.5758 12.3427 9.53113Z" fill="#EB001B"/>
<path d="M31.4825 9.53113C31.4825 14.7997 27.2026 19.0622 21.9126 19.0622C19.6796 19.0622 17.6327 18.2945 16.0111 17.0236C18.2441 15.2763 19.653 12.5758 19.653 9.53113C19.653 6.48646 18.2175 3.78597 16.0111 2.0386C17.6327 0.767785 19.6796 0 21.9126 0C27.2026 0 31.4825 4.28901 31.4825 9.53113Z" fill="#F79E1B"/>
</g>
<defs>
<clipPath id="clip0_2_609">
<rect width="31" height="24" fill="white" transform="translate(0.513184)"/>
</clipPath>
</defs>
</svg>
