<svg width="75" height="24" viewBox="0 0 75 24" fill="none" xmlns="http://www.w3.org/2000/svg">
<path d="M38.7579 7.6422C38.7156 10.972 41.7243 12.8302 43.9909 13.935C46.3196 15.0686 47.1018 15.7955 47.0929 16.8091C47.0751 18.3606 45.2352 19.0452 43.5131 19.0719C40.5089 19.1186 38.7623 18.2606 37.3735 17.6115L36.2913 22.6773C37.6846 23.3197 40.2644 23.8798 42.9398 23.9043C49.2194 23.9043 53.3281 20.8035 53.3503 15.9955C53.3748 9.89391 44.913 9.55604 44.9708 6.82865C44.9908 6.00177 45.7797 5.11931 47.5084 4.8948C48.3639 4.78144 50.726 4.69475 53.4036 5.92841L54.4547 1.02711C53.0148 0.502527 51.1638 0.000171661 48.8595 0.000171661C42.9487 0.000171661 38.7912 3.14323 38.7579 7.6422ZM64.5541 0.422506C63.4075 0.422506 62.4409 1.09157 62.0098 2.11851L53.0392 23.5442H59.3144L60.5632 20.0922H68.2316L68.956 23.5442H74.4868L69.6604 0.422506H64.5541ZM65.4318 6.66861L67.2428 15.3509H62.2831L65.4318 6.66861ZM31.1494 0.422506L26.203 23.5442H32.1827L37.1268 0.422506H31.1494ZM22.3033 0.422506L16.0792 16.16L13.5616 2.77869C13.266 1.28496 12.0995 0.422506 10.804 0.422506H0.62903L0.486816 1.0938C2.57558 1.54725 4.94877 2.27855 6.38646 3.06099C7.26641 3.53889 7.51751 3.95678 7.80638 5.09264L12.575 23.5442H18.8946L28.5829 0.422506H22.3033Z" fill="url(#paint0_linear_2_625)"/>
<defs>
<linearGradient id="paint0_linear_2_625" x1="3402.58" y1="71.8601" x2="3471.79" y2="-2383.13" gradientUnits="userSpaceOnUse">
<stop stop-color="#222357"/>
<stop offset="1" stop-color="#254AA5"/>
</linearGradient>
</defs>
</svg>
